G04*
G04 #@! TF.GenerationSoftware,Altium Limited,Altium Designer,21.0.8 (223)*
G04*
G04 Layer_Color=8421504*
%FSLAX24Y24*%
%MOIN*%
G70*
G04*
G04 #@! TF.SameCoordinates,5611F575-40E7-4C37-80B7-B37D46D1236C*
G04*
G04*
G04 #@! TF.FilePolarity,Positive*
G04*
G01*
G75*
%ADD24R,0.1260X0.0413*%
%ADD25R,0.3937X0.4114*%
%ADD26R,0.0579X0.0457*%
%ADD27R,0.0300X0.0300*%
%ADD28R,0.0386X0.0366*%
%ADD29R,0.0787X0.1575*%
%ADD30R,0.2953X0.1181*%
%ADD31R,0.1181X0.0787*%
D24*
X10000Y11961D02*
D03*
Y12631D02*
D03*
Y13300D02*
D03*
Y13969D02*
D03*
Y14639D02*
D03*
D25*
X5900Y13300D02*
D03*
D26*
X38600Y13350D02*
D03*
Y12650D02*
D03*
X2500Y8400D02*
D03*
Y7700D02*
D03*
X14400Y4750D02*
D03*
Y4050D02*
D03*
X16050Y4750D02*
D03*
Y4050D02*
D03*
D27*
X9540Y3400D02*
D03*
X9550Y3950D02*
D03*
X8640Y3400D02*
D03*
X8650Y3950D02*
D03*
X6690Y5750D02*
D03*
X6700Y6300D02*
D03*
D28*
X8000Y5750D02*
D03*
Y5144D02*
D03*
X5450Y6353D02*
D03*
Y5747D02*
D03*
X1400Y8303D02*
D03*
Y7697D02*
D03*
X16050Y5997D02*
D03*
Y6603D02*
D03*
X14400Y5998D02*
D03*
Y6604D02*
D03*
X11300Y14553D02*
D03*
Y13947D02*
D03*
D29*
X6050Y4400D02*
D03*
Y1644D02*
D03*
X12200Y10300D02*
D03*
Y7544D02*
D03*
D30*
X8050Y9484D02*
D03*
Y7516D02*
D03*
D31*
X4900Y7500D02*
D03*
Y9500D02*
D03*
M02*
