G04*
G04 #@! TF.GenerationSoftware,Altium Limited,Altium Designer,21.0.8 (223)*
G04*
G04 Layer_Color=8388736*
%FSLAX24Y24*%
%MOIN*%
G70*
G04*
G04 #@! TF.SameCoordinates,5611F575-40E7-4C37-80B7-B37D46D1236C*
G04*
G04*
G04 #@! TF.FilePolarity,Negative*
G04*
G01*
G75*
%ADD12C,0.0100*%
%ADD32C,0.0030*%
%ADD33R,0.1340X0.0493*%
%ADD34R,0.4017X0.4194*%
%ADD35R,0.0659X0.0537*%
%ADD36R,0.0380X0.0380*%
%ADD37R,0.0466X0.0446*%
%ADD38R,0.0867X0.1655*%
%ADD39R,0.3033X0.1261*%
%ADD40R,0.1261X0.0867*%
%ADD41C,0.0730*%
%ADD42C,0.1025*%
%ADD43C,0.0867*%
%ADD44C,0.0749*%
%ADD45R,0.0749X0.0749*%
%ADD46C,0.0671*%
%ADD47R,0.0671X0.0671*%
%ADD48R,0.0749X0.0749*%
%ADD49C,0.0680*%
%ADD50O,0.1080X0.0930*%
%ADD51R,0.0986X0.0986*%
%ADD52C,0.0986*%
%ADD53C,0.0320*%
D12*
X5300Y150D02*
Y550D01*
X5567Y150D01*
Y550D01*
X5900Y150D02*
X5767D01*
X5700Y217D01*
Y350D01*
X5767Y417D01*
X5900D01*
X5966Y350D01*
Y283D01*
X5700D01*
X6100Y417D02*
Y217D01*
X6166Y150D01*
X6233Y217D01*
X6300Y150D01*
X6366Y217D01*
Y417D01*
X6766Y550D02*
X6633D01*
X6700D01*
Y217D01*
X6633Y150D01*
X6566D01*
X6500Y217D01*
X7099Y150D02*
X6966D01*
X6899Y217D01*
Y350D01*
X6966Y417D01*
X7099D01*
X7166Y350D01*
Y283D01*
X6899D01*
X7366Y417D02*
X7499D01*
X7566Y350D01*
Y150D01*
X7366D01*
X7299Y217D01*
X7366Y283D01*
X7566D01*
X7699Y150D02*
Y417D01*
X7899D01*
X7966Y350D01*
Y150D01*
X8099D02*
X8299D01*
X8366Y217D01*
X8299Y283D01*
X8166D01*
X8099Y350D01*
X8166Y417D01*
X8366D01*
D32*
X8680Y280D02*
Y130D01*
X8755D01*
X8780Y155D01*
Y255D01*
X8755Y280D01*
X8680D01*
X8905Y130D02*
X8855D01*
X8830Y155D01*
Y205D01*
X8855Y230D01*
X8905D01*
X8930Y205D01*
Y180D01*
X8830D01*
X8980Y130D02*
X9055D01*
X9080Y155D01*
X9055Y180D01*
X9005D01*
X8980Y205D01*
X9005Y230D01*
X9080D01*
X9130Y130D02*
X9180D01*
X9155D01*
Y230D01*
X9130D01*
X9305Y80D02*
X9330D01*
X9355Y105D01*
Y230D01*
X9280D01*
X9255Y205D01*
Y155D01*
X9280Y130D01*
X9355D01*
X9405D02*
Y230D01*
X9480D01*
X9505Y205D01*
Y130D01*
X9630D02*
X9580D01*
X9555Y155D01*
Y205D01*
X9580Y230D01*
X9630D01*
X9655Y205D01*
Y180D01*
X9555D01*
X9805Y280D02*
Y130D01*
X9730D01*
X9705Y155D01*
Y205D01*
X9730Y230D01*
X9805D01*
X10005Y280D02*
Y130D01*
X10080D01*
X10105Y155D01*
Y180D01*
Y205D01*
X10080Y230D01*
X10005D01*
X10155D02*
Y155D01*
X10180Y130D01*
X10254D01*
Y105D01*
X10230Y80D01*
X10205D01*
X10254Y130D02*
Y230D01*
X10454Y280D02*
Y130D01*
X10554D01*
X10604Y255D02*
X10629Y280D01*
X10679D01*
X10704Y255D01*
Y230D01*
X10679Y205D01*
X10654D01*
X10679D01*
X10704Y180D01*
Y155D01*
X10679Y130D01*
X10629D01*
X10604Y155D01*
X10754Y280D02*
X10854D01*
X10804D01*
Y130D01*
X10904Y280D02*
X11004D01*
X10954D01*
Y130D01*
X11154Y255D02*
X11129Y280D01*
X11079D01*
X11054Y255D01*
Y155D01*
X11079Y130D01*
X11129D01*
X11154Y155D01*
D33*
X10000Y11961D02*
D03*
Y12631D02*
D03*
Y13300D02*
D03*
Y13969D02*
D03*
Y14639D02*
D03*
D34*
X5900Y13300D02*
D03*
D35*
X38600Y13350D02*
D03*
Y12650D02*
D03*
X2500Y8400D02*
D03*
Y7700D02*
D03*
X14400Y4750D02*
D03*
Y4050D02*
D03*
X16050Y4750D02*
D03*
Y4050D02*
D03*
D36*
X9540Y3400D02*
D03*
X9550Y3950D02*
D03*
X8640Y3400D02*
D03*
X8650Y3950D02*
D03*
X6690Y5750D02*
D03*
X6700Y6300D02*
D03*
D37*
X8000Y5750D02*
D03*
Y5144D02*
D03*
X5450Y6353D02*
D03*
Y5747D02*
D03*
X1400Y8303D02*
D03*
Y7697D02*
D03*
X16050Y5997D02*
D03*
Y6603D02*
D03*
X14400Y5998D02*
D03*
Y6604D02*
D03*
X11300Y14553D02*
D03*
Y13947D02*
D03*
D38*
X6050Y4400D02*
D03*
Y1644D02*
D03*
X12200Y10300D02*
D03*
Y7544D02*
D03*
D39*
X8050Y9484D02*
D03*
Y7516D02*
D03*
D40*
X4900Y7500D02*
D03*
Y9500D02*
D03*
D41*
X17850Y8500D02*
D03*
X18850D02*
D03*
X19850D02*
D03*
X20850D02*
D03*
X21850D02*
D03*
X22850D02*
D03*
X23850D02*
D03*
X24850D02*
D03*
X25850D02*
D03*
X26850D02*
D03*
X27850D02*
D03*
X28850D02*
D03*
X29850D02*
D03*
X30850D02*
D03*
X31850D02*
D03*
X32850D02*
D03*
X33850D02*
D03*
X34850D02*
D03*
X35850D02*
D03*
X36850D02*
D03*
Y14500D02*
D03*
X35850D02*
D03*
X34850D02*
D03*
X33850D02*
D03*
X32850D02*
D03*
X31850D02*
D03*
X30850D02*
D03*
X29850D02*
D03*
X28850D02*
D03*
X27850D02*
D03*
X26850D02*
D03*
X25850D02*
D03*
X24850D02*
D03*
X23850D02*
D03*
X22850D02*
D03*
X21850D02*
D03*
X20850D02*
D03*
X19850D02*
D03*
X18850D02*
D03*
X17850D02*
D03*
D42*
X2700Y1589D02*
D03*
Y6549D02*
D03*
D43*
Y2888D02*
D03*
Y4069D02*
D03*
Y5250D02*
D03*
D44*
X15200Y9200D02*
D03*
Y10200D02*
D03*
Y11200D02*
D03*
X37600Y5200D02*
D03*
X36600D02*
D03*
X35600D02*
D03*
X34600D02*
D03*
X33600D02*
D03*
X17800Y6200D02*
D03*
X18800D02*
D03*
X23800D02*
D03*
X22800D02*
D03*
X21800D02*
D03*
X20800D02*
D03*
X19800D02*
D03*
D45*
X15200Y12200D02*
D03*
D46*
X16450Y2700D02*
D03*
X15450D02*
D03*
X14450D02*
D03*
X29700Y4650D02*
D03*
X28700Y5650D02*
D03*
Y4650D02*
D03*
X27700Y5650D02*
D03*
Y4650D02*
D03*
X33600Y2700D02*
D03*
X34600D02*
D03*
X35600D02*
D03*
X36600D02*
D03*
X37600D02*
D03*
X31250D02*
D03*
X30250D02*
D03*
X29250D02*
D03*
X28250D02*
D03*
X27250D02*
D03*
X12550Y13850D02*
D03*
X13550D02*
D03*
D47*
X13450Y2700D02*
D03*
X29700Y5650D02*
D03*
X32600Y2700D02*
D03*
X26250D02*
D03*
X14550Y13850D02*
D03*
D48*
X32600Y5200D02*
D03*
X24800Y6200D02*
D03*
D49*
X18391Y1609D02*
D03*
X24391D02*
D03*
D50*
X11300Y2000D02*
D03*
Y4000D02*
D03*
Y3000D02*
D03*
D51*
X1850Y12300D02*
D03*
D52*
Y10300D02*
D03*
D53*
X8900Y5750D02*
D03*
X22150Y2450D02*
D03*
X20350D02*
D03*
X21250D02*
D03*
X22150Y3583D02*
D03*
Y4150D02*
D03*
Y3017D02*
D03*
X20350Y3583D02*
D03*
Y4150D02*
D03*
Y3017D02*
D03*
X3017Y14599D02*
D03*
X3000Y15150D02*
D03*
X9750Y10600D02*
D03*
Y11050D02*
D03*
X1894Y15151D02*
D03*
X2450Y15150D02*
D03*
X1912Y14599D02*
D03*
X2467D02*
D03*
X550Y8800D02*
D03*
X549Y8244D02*
D03*
Y7688D02*
D03*
Y7133D02*
D03*
X3900Y2400D02*
D03*
Y2956D02*
D03*
Y3512D02*
D03*
X3901Y4067D02*
D03*
X21250Y3583D02*
D03*
Y4150D02*
D03*
Y3017D02*
D03*
X36350Y11550D02*
D03*
X35700D02*
D03*
X35050Y11550D02*
D03*
X36350Y11950D02*
D03*
X35050Y11950D02*
D03*
X35700Y11950D02*
D03*
Y11150D02*
D03*
X35050Y11150D02*
D03*
X36350Y11150D02*
D03*
X35050Y10750D02*
D03*
X35700Y10750D02*
D03*
X36350D02*
D03*
X29800Y11550D02*
D03*
X29150D02*
D03*
X28500Y11550D02*
D03*
X29800Y11950D02*
D03*
X28500Y11950D02*
D03*
X29150Y11950D02*
D03*
Y11150D02*
D03*
X28500Y11150D02*
D03*
X29800Y11150D02*
D03*
X28500Y10750D02*
D03*
X29150Y10750D02*
D03*
X29800D02*
D03*
X24000Y10800D02*
D03*
X23350D02*
D03*
X22700Y10800D02*
D03*
X24000Y11200D02*
D03*
X22700Y11200D02*
D03*
X23350Y11200D02*
D03*
Y12000D02*
D03*
X22700Y12000D02*
D03*
X24000Y12000D02*
D03*
X22700Y11600D02*
D03*
X23350Y11600D02*
D03*
X24000D02*
D03*
X36350Y9350D02*
D03*
X37400Y9250D02*
D03*
X26350Y4100D02*
D03*
X10300Y10600D02*
D03*
Y11050D02*
D03*
X19100Y7400D02*
D03*
M02*
