G04*
G04 #@! TF.GenerationSoftware,Altium Limited,Altium Designer,21.0.8 (223)*
G04*
G04 Layer_Color=65535*
%FSLAX24Y24*%
%MOIN*%
G70*
G04*
G04 #@! TF.SameCoordinates,5611F575-40E7-4C37-80B7-B37D46D1236C*
G04*
G04*
G04 #@! TF.FilePolarity,Positive*
G04*
G01*
G75*
%ADD10C,0.0197*%
%ADD11C,0.0079*%
%ADD12C,0.0100*%
%ADD13C,0.0080*%
%ADD14C,0.0118*%
%ADD15C,0.0050*%
%ADD16C,0.0060*%
%ADD17R,0.0630X0.0118*%
%ADD18R,0.0070X0.0190*%
G04:AMPARAMS|DCode=19|XSize=8.5mil|YSize=56mil|CornerRadius=0mil|HoleSize=0mil|Usage=FLASHONLY|Rotation=315.000|XOffset=0mil|YOffset=0mil|HoleType=Round|Shape=Rectangle|*
%AMROTATEDRECTD19*
4,1,4,-0.0228,-0.0168,0.0168,0.0228,0.0228,0.0168,-0.0168,-0.0228,-0.0228,-0.0168,0.0*
%
%ADD19ROTATEDRECTD19*%

%ADD20R,0.0070X0.0180*%
%ADD21R,0.0830X0.0075*%
%ADD22R,0.0820X0.0080*%
G04:AMPARAMS|DCode=23|XSize=8.5mil|YSize=56mil|CornerRadius=0mil|HoleSize=0mil|Usage=FLASHONLY|Rotation=45.000|XOffset=0mil|YOffset=0mil|HoleType=Round|Shape=Rectangle|*
%AMROTATEDRECTD23*
4,1,4,0.0168,-0.0228,-0.0228,0.0168,-0.0168,0.0228,0.0228,-0.0168,0.0168,-0.0228,0.0*
%
%ADD23ROTATEDRECTD23*%

D10*
X10129Y11400D02*
G03*
X10129Y11400I-79J0D01*
G01*
D11*
X9260Y3300D02*
G03*
X9440Y3140I170J10D01*
G01*
X9440Y4210D02*
G03*
X9270Y4000I20J-190D01*
G01*
X9840Y4000D02*
G03*
X9640Y4210I-205J5D01*
G01*
X9640Y3140D02*
G03*
X9830Y3300I15J175D01*
G01*
X8360Y3300D02*
G03*
X8540Y3140I170J10D01*
G01*
X8540Y4210D02*
G03*
X8370Y4000I20J-190D01*
G01*
X8940Y4000D02*
G03*
X8740Y4210I-205J5D01*
G01*
X8740Y3140D02*
G03*
X8930Y3300I15J175D01*
G01*
X6600Y6560D02*
G03*
X6410Y6400I-15J-175D01*
G01*
X6400Y5700D02*
G03*
X6600Y5490I205J-5D01*
G01*
X6800Y5490D02*
G03*
X6970Y5700I-20J190D01*
G01*
X6980Y6400D02*
G03*
X6800Y6560I-170J-10D01*
G01*
X38193Y13697D02*
X39007D01*
X38285Y12303D02*
X38915D01*
X39007Y13177D02*
Y13697D01*
X38193Y13177D02*
Y13697D01*
Y12390D02*
Y12823D01*
Y12390D02*
X38285Y12303D01*
X38915D02*
X39007Y12396D01*
Y12823D01*
X9260Y3300D02*
Y3530D01*
X9440Y3140D02*
X9640D01*
X9830Y3300D02*
Y3560D01*
X9840Y3840D02*
Y4000D01*
X9440Y4210D02*
X9640D01*
X9270Y3820D02*
Y4000D01*
X8360Y3300D02*
Y3530D01*
X8540Y3140D02*
X8740D01*
X8930Y3300D02*
Y3560D01*
X8940Y3840D02*
Y4000D01*
X8540Y4210D02*
X8740D01*
X8370Y3820D02*
Y4000D01*
X8311Y5604D02*
Y6051D01*
Y4843D02*
Y5289D01*
X7689Y5604D02*
Y6051D01*
Y4843D02*
X8311D01*
X7689Y6051D02*
X8311D01*
X7689Y4843D02*
Y5289D01*
X6970Y5700D02*
Y5880D01*
X6600Y5490D02*
X6800D01*
X6400Y5700D02*
Y5860D01*
X6410Y6140D02*
Y6400D01*
X6600Y6560D02*
X6800D01*
X6980Y6170D02*
Y6400D01*
X5761Y6207D02*
Y6654D01*
Y5446D02*
Y5893D01*
X5139Y6207D02*
Y6654D01*
Y5446D02*
X5761D01*
X5139Y6654D02*
X5761D01*
X5139Y5446D02*
Y5893D01*
X14700Y12700D02*
X15700D01*
Y8700D02*
Y12700D01*
X14700Y8700D02*
Y12700D01*
Y8700D02*
X15700D01*
X12950Y2200D02*
X16950D01*
X12950Y1700D02*
Y2200D01*
X16617Y367D02*
Y1700D01*
X16450Y200D02*
X16617Y367D01*
X16283D02*
X16450Y200D01*
X16283Y367D02*
Y1700D01*
X15617Y367D02*
Y1700D01*
X15450Y200D02*
X15617Y367D01*
X15283D02*
X15450Y200D01*
X15283Y367D02*
Y1700D01*
X14617Y367D02*
Y1700D01*
X14450Y200D02*
X14617Y367D01*
X14283D02*
X14450Y200D01*
X14283Y367D02*
Y1700D01*
X13617Y367D02*
Y1700D01*
X13450Y200D02*
X13617Y367D01*
X13283D02*
X13450Y200D01*
X13283Y367D02*
Y1700D01*
X16950D02*
Y2200D01*
X12950Y1700D02*
X16950D01*
X27200Y4150D02*
Y6150D01*
X30200Y4150D02*
Y6150D01*
X27200Y4150D02*
X30200D01*
X27200Y6150D02*
X30200D01*
X27200D02*
X29117D01*
X32100Y4700D02*
Y5700D01*
X38100D01*
X32100Y4700D02*
X38100D01*
Y5700D01*
X32100Y1700D02*
X38100D01*
Y2200D01*
X32433Y367D02*
Y1700D01*
Y367D02*
X32600Y200D01*
X32767Y367D01*
Y1700D01*
X33433Y367D02*
Y1700D01*
Y367D02*
X33600Y200D01*
X33767Y367D01*
Y1700D01*
X34433Y367D02*
Y1700D01*
Y367D02*
X34600Y200D01*
X34767Y367D01*
Y1700D01*
X35433Y367D02*
Y1700D01*
Y367D02*
X35600Y200D01*
X35767Y367D01*
Y1700D01*
X36433Y367D02*
Y1700D01*
Y367D02*
X36600Y200D01*
X36767Y367D01*
Y1700D01*
X37433Y367D02*
Y1700D01*
Y367D02*
X37600Y200D01*
X37767Y367D01*
Y1700D01*
X32100D02*
Y2200D01*
X38100D01*
X25750D02*
X31750D01*
X25750Y1700D02*
Y2200D01*
X31417Y367D02*
Y1700D01*
X31250Y200D02*
X31417Y367D01*
X31083D02*
X31250Y200D01*
X31083Y367D02*
Y1700D01*
X30417Y367D02*
Y1700D01*
X30250Y200D02*
X30417Y367D01*
X30083D02*
X30250Y200D01*
X30083Y367D02*
Y1700D01*
X29417Y367D02*
Y1700D01*
X29250Y200D02*
X29417Y367D01*
X29083D02*
X29250Y200D01*
X29083Y367D02*
Y1700D01*
X28417Y367D02*
Y1700D01*
X28250Y200D02*
X28417Y367D01*
X28083D02*
X28250Y200D01*
X28083Y367D02*
Y1700D01*
X27417Y367D02*
Y1700D01*
X27250Y200D02*
X27417Y367D01*
X27083D02*
X27250Y200D01*
X27083Y367D02*
Y1700D01*
X26417Y367D02*
Y1700D01*
X26250Y200D02*
X26417Y367D01*
X26083D02*
X26250Y200D01*
X26083Y367D02*
Y1700D01*
X31750D02*
Y2200D01*
X25750Y1700D02*
X31750D01*
X1711Y8157D02*
Y8604D01*
X1089Y7396D02*
X1711D01*
X1089Y8604D02*
X1711D01*
Y7396D02*
Y7843D01*
X1089Y8157D02*
Y8604D01*
Y7396D02*
Y7843D01*
X2093Y8227D02*
Y8654D01*
X2185Y8747D01*
X2815D02*
X2907Y8660D01*
Y8227D02*
Y8660D01*
Y7353D02*
Y7873D01*
X2093Y7353D02*
Y7873D01*
X2185Y8747D02*
X2815D01*
X2093Y7353D02*
X2907D01*
X17300Y5700D02*
X25300D01*
X17300D02*
Y6700D01*
X25300D01*
Y5700D02*
Y6700D01*
X12050Y14350D02*
X15050D01*
Y14850D01*
X12383D02*
Y16183D01*
X12550Y16350D01*
X12717Y16183D01*
Y14850D02*
Y16183D01*
X13383Y14850D02*
Y16183D01*
X13550Y16350D01*
X13717Y16183D01*
Y14850D02*
Y16183D01*
X14383Y14850D02*
Y16183D01*
X14550Y16350D01*
X14717Y16183D01*
Y14850D02*
Y16183D01*
X12050Y14350D02*
Y14850D01*
X15050D01*
X13993Y5097D02*
X14807D01*
X14085Y3703D02*
X14715D01*
X14807Y4577D02*
Y5097D01*
X13993Y4577D02*
Y5097D01*
Y3790D02*
Y4223D01*
Y3790D02*
X14085Y3703D01*
X14715D02*
X14807Y3796D01*
Y4223D01*
X15643Y5097D02*
X16457D01*
X15735Y3703D02*
X16365D01*
X16457Y4577D02*
Y5097D01*
X15643Y4577D02*
Y5097D01*
Y3790D02*
Y4223D01*
Y3790D02*
X15735Y3703D01*
X16365D02*
X16457Y3796D01*
Y4223D01*
X15739Y5696D02*
Y6143D01*
Y6457D02*
Y6904D01*
X16361Y5696D02*
Y6143D01*
X15739Y6904D02*
X16361D01*
X15739Y5696D02*
X16361D01*
Y6457D02*
Y6904D01*
X14089Y5696D02*
Y6143D01*
Y6458D02*
Y6905D01*
X14711Y5696D02*
Y6143D01*
X14089Y6905D02*
X14711D01*
X14089Y5696D02*
X14711D01*
Y6458D02*
Y6905D01*
X11611Y14407D02*
Y14854D01*
Y13646D02*
Y14093D01*
X10989Y14407D02*
Y14854D01*
Y13646D02*
X11611D01*
X10989Y14854D02*
X11611D01*
X10989Y13646D02*
Y14093D01*
D12*
X7450Y8400D02*
G03*
X7050Y8400I-200J0D01*
G01*
X7850D02*
G03*
X7450Y8400I-200J0D01*
G01*
X9050D02*
G03*
X8650Y8400I-200J0D01*
G01*
D02*
G03*
X8250Y8400I-200J0D01*
G01*
D02*
G03*
X7850Y8400I-200J0D01*
G01*
X7623Y11150D02*
X8509D01*
Y15450D01*
X7623D02*
X8509D01*
X2700Y6530D02*
X3389D01*
Y1608D02*
Y6530D01*
X3291Y1608D02*
X3389D01*
X2700D02*
X3291D01*
X338Y6530D02*
X2700D01*
X338Y1608D02*
Y6530D01*
Y1608D02*
X2700D01*
X-2418Y4069D02*
X338D01*
X-2418Y2888D02*
Y4069D01*
Y2888D02*
X338D01*
X7707Y1260D02*
Y4418D01*
X7324Y4802D02*
X7707Y4418D01*
X6640Y4802D02*
X7324D01*
X4782D02*
X5540D01*
X4400Y4420D02*
X4782Y4802D01*
X4400Y1260D02*
Y4420D01*
Y1260D02*
X5540D01*
X6640D02*
X7707D01*
X34400Y4500D02*
X34800D01*
X34500Y4350D02*
X34700D01*
X34600Y4500D02*
Y4650D01*
X30400Y5450D02*
Y5850D01*
X30550Y5550D02*
Y5750D01*
X30250Y5650D02*
X30400D01*
X32150Y2500D02*
Y2900D01*
X32000Y2600D02*
Y2800D01*
X32150Y2700D02*
X32300D01*
X25800Y2500D02*
Y2900D01*
X25650Y2600D02*
Y2800D01*
X25800Y2700D02*
X25950D01*
X16850Y2500D02*
Y2900D01*
X17000Y2600D02*
Y2800D01*
X16700Y2700D02*
X16850D01*
X15900Y12000D02*
Y12400D01*
X16050Y12100D02*
Y12300D01*
X15750Y12200D02*
X15900D01*
X16650Y14300D02*
Y14700D01*
X16500Y14400D02*
Y14600D01*
X16650Y14500D02*
X16800D01*
X12100Y13650D02*
Y14050D01*
X11950Y13750D02*
Y13950D01*
X12100Y13850D02*
X12250D01*
X1850Y13550D02*
Y13700D01*
X1750Y13850D02*
X1950D01*
X1650Y13700D02*
X2050D01*
X13857Y7160D02*
Y10318D01*
X13474Y10702D02*
X13857Y10318D01*
X12790Y10702D02*
X13474D01*
X10932D02*
X11690D01*
X10550Y10320D02*
X10932Y10702D01*
X10550Y7160D02*
Y10320D01*
Y7160D02*
X11690D01*
X12790D02*
X13857D01*
X17300Y750D02*
X25300D01*
X17300D02*
Y5700D01*
X25300Y750D02*
Y5700D01*
X10300Y4900D02*
X12300D01*
X10300Y1100D02*
Y4900D01*
Y1100D02*
X12300D01*
Y4900D01*
X650Y10100D02*
X1150D01*
Y10500D01*
X650D02*
X1150D01*
X650Y13500D02*
X3650D01*
Y9300D02*
Y13500D01*
X650Y9300D02*
X3650D01*
X650D02*
Y13500D01*
X2850Y9300D02*
Y13500D01*
X650Y12500D02*
X1150D01*
Y12100D02*
Y12500D01*
X650Y12100D02*
X1150D01*
X9650Y8200D02*
Y8800D01*
X6450Y8200D02*
Y8800D01*
Y9300D02*
Y10200D01*
X9650D01*
Y9300D02*
Y10200D01*
Y6800D02*
Y7700D01*
X6450Y6800D02*
X9650D01*
X6450D02*
Y7700D01*
X4430Y6908D02*
X4438Y6900D01*
X5370D01*
X4210Y8228D02*
X4211Y8227D01*
Y7218D02*
Y8227D01*
Y7127D02*
X4430Y6908D01*
X4211Y7127D02*
Y7218D01*
X5589Y8219D02*
X5590Y8220D01*
X5589Y7210D02*
Y8219D01*
X5370Y6900D02*
X5589Y7119D01*
Y7210D01*
Y8713D02*
Y10091D01*
X4211Y8713D02*
Y10091D01*
X5589D01*
D13*
X17535Y10337D02*
Y12608D01*
X16850Y6972D02*
X37850D01*
Y16028D01*
X16850D02*
X37850D01*
X16850Y9652D02*
X17535Y10337D01*
X16850Y6972D02*
Y9652D01*
Y13293D02*
X17535Y12608D01*
X16850Y13293D02*
Y16028D01*
D14*
X4782Y4802D02*
X4784D01*
X4400Y4420D02*
X4782Y4802D01*
X4400Y1260D02*
Y4420D01*
X6844Y4240D02*
X7344D01*
X7074Y3980D02*
Y4480D01*
X10932Y10702D02*
X10934D01*
X10550Y10320D02*
X10932Y10702D01*
X10550Y7160D02*
Y10320D01*
X12994Y10140D02*
X13494D01*
X13224Y9880D02*
Y10380D01*
D15*
X7900Y16000D02*
Y15750D01*
X7950Y15700D01*
X8050D01*
X8100Y15750D01*
Y16000D01*
X8200Y15950D02*
X8250Y16000D01*
X8350D01*
X8400Y15950D01*
Y15900D01*
X8350Y15850D01*
X8300D01*
X8350D01*
X8400Y15800D01*
Y15750D01*
X8350Y15700D01*
X8250D01*
X8200Y15750D01*
X36400Y4600D02*
X36600D01*
X36500D01*
Y4300D01*
X36700Y4600D02*
X36900Y4300D01*
Y4600D02*
X36700Y4300D01*
X35400D02*
Y4600D01*
X35550D01*
X35600Y4550D01*
Y4450D01*
X35550Y4400D01*
X35400D01*
X35500D02*
X35600Y4300D01*
X35700Y4600D02*
X35900Y4300D01*
Y4600D02*
X35700Y4300D01*
X15200Y1800D02*
Y2100D01*
X15350D01*
X15400Y2050D01*
Y1950D01*
X15350Y1900D01*
X15200D01*
X15300D02*
X15400Y1800D01*
X15500Y2100D02*
X15700Y1800D01*
Y2100D02*
X15500Y1800D01*
X14200Y2100D02*
X14400D01*
X14300D01*
Y1800D01*
X14500Y2100D02*
X14700Y1800D01*
Y2100D02*
X14500Y1800D01*
X14145Y14448D02*
Y14748D01*
X14295D01*
X14345Y14698D01*
Y14598D01*
X14295Y14548D01*
X14145D01*
X14445Y14748D02*
Y14448D01*
X14545Y14548D01*
X14645Y14448D01*
Y14748D01*
X14745Y14448D02*
Y14748D01*
X14845Y14648D01*
X14945Y14748D01*
Y14448D01*
X13495Y14748D02*
X13295D01*
Y14598D01*
X13395Y14648D01*
X13445D01*
X13495Y14598D01*
Y14498D01*
X13445Y14448D01*
X13345D01*
X13295Y14498D01*
X13595Y14748D02*
Y14548D01*
X13695Y14448D01*
X13795Y14548D01*
Y14748D01*
X12345Y14698D02*
X12295Y14748D01*
X12195D01*
X12145Y14698D01*
Y14498D01*
X12195Y14448D01*
X12295D01*
X12345Y14498D01*
Y14598D01*
X12245D01*
X12445Y14448D02*
Y14748D01*
X12645Y14448D01*
Y14748D01*
X12745D02*
Y14448D01*
X12895D01*
X12945Y14498D01*
Y14698D01*
X12895Y14748D01*
X12745D01*
X34195Y1798D02*
Y2098D01*
X34345D01*
X34395Y2048D01*
Y1948D01*
X34345Y1898D01*
X34195D01*
X34495Y2098D02*
Y1798D01*
X34595Y1898D01*
X34695Y1798D01*
Y2098D01*
X34795Y1798D02*
Y2098D01*
X34895Y1998D01*
X34995Y2098D01*
Y1798D01*
X37245Y2098D02*
Y1798D01*
X37395D01*
X37445Y1848D01*
Y2048D01*
X37395Y2098D01*
X37245D01*
X37545D02*
X37645D01*
X37595D01*
Y1798D01*
X37545D01*
X37645D01*
X37795D02*
Y2098D01*
X37945D01*
X37995Y2048D01*
Y1948D01*
X37945Y1898D01*
X37795D01*
X37895D02*
X37995Y1798D01*
X33545Y2098D02*
X33345D01*
Y1948D01*
X33445Y1998D01*
X33495D01*
X33545Y1948D01*
Y1848D01*
X33495Y1798D01*
X33395D01*
X33345Y1848D01*
X33645Y2098D02*
Y1898D01*
X33745Y1798D01*
X33845Y1898D01*
Y2098D01*
X32395Y2048D02*
X32345Y2098D01*
X32245D01*
X32195Y2048D01*
Y1848D01*
X32245Y1798D01*
X32345D01*
X32395Y1848D01*
Y1948D01*
X32295D01*
X32495Y1798D02*
Y2098D01*
X32695Y1798D01*
Y2098D01*
X32795D02*
Y1798D01*
X32945D01*
X32995Y1848D01*
Y2048D01*
X32945Y2098D01*
X32795D01*
X36395Y2048D02*
X36345Y2098D01*
X36245D01*
X36195Y2048D01*
Y1848D01*
X36245Y1798D01*
X36345D01*
X36395Y1848D01*
Y1948D01*
X36295D01*
X36495Y1798D02*
Y2098D01*
X36695Y1798D01*
Y2098D01*
X36795D02*
Y1798D01*
X36945D01*
X36995Y1848D01*
Y2048D01*
X36945Y2098D01*
X36795D01*
X30050Y2050D02*
X30000Y2100D01*
X29900D01*
X29850Y2050D01*
Y1850D01*
X29900Y1800D01*
X30000D01*
X30050Y1850D01*
Y1950D01*
X29950D01*
X30150Y1800D02*
Y2100D01*
X30350Y1800D01*
Y2100D01*
X30450D02*
Y1800D01*
X30600D01*
X30650Y1850D01*
Y2050D01*
X30600Y2100D01*
X30450D01*
X26050Y2050D02*
X26000Y2100D01*
X25900D01*
X25850Y2050D01*
Y1850D01*
X25900Y1800D01*
X26000D01*
X26050Y1850D01*
Y1950D01*
X25950D01*
X26150Y1800D02*
Y2100D01*
X26350Y1800D01*
Y2100D01*
X26450D02*
Y1800D01*
X26600D01*
X26650Y1850D01*
Y2050D01*
X26600Y2100D01*
X26450D01*
X27200D02*
X27000D01*
Y1950D01*
X27100Y2000D01*
X27150D01*
X27200Y1950D01*
Y1850D01*
X27150Y1800D01*
X27050D01*
X27000Y1850D01*
X27300Y2100D02*
Y1900D01*
X27400Y1800D01*
X27500Y1900D01*
Y2100D01*
X30900D02*
Y1800D01*
X31050D01*
X31100Y1850D01*
Y2050D01*
X31050Y2100D01*
X30900D01*
X31200D02*
X31300D01*
X31250D01*
Y1800D01*
X31200D01*
X31300D01*
X31450D02*
Y2100D01*
X31600D01*
X31650Y2050D01*
Y1950D01*
X31600Y1900D01*
X31450D01*
X31550D02*
X31650Y1800D01*
X27850D02*
Y2100D01*
X28000D01*
X28050Y2050D01*
Y1950D01*
X28000Y1900D01*
X27850D01*
X28150Y2100D02*
Y1800D01*
X28250Y1900D01*
X28350Y1800D01*
Y2100D01*
X28450Y1800D02*
Y2100D01*
X28550Y2000D01*
X28650Y2100D01*
Y1800D01*
X38350Y14200D02*
Y13900D01*
X38500D01*
X38550Y13950D01*
Y14150D01*
X38500Y14200D01*
X38350D01*
X38850D02*
X38650D01*
Y14050D01*
X38750Y14100D01*
X38800D01*
X38850Y14050D01*
Y13950D01*
X38800Y13900D01*
X38700D01*
X38650Y13950D01*
X22500Y12850D02*
Y12600D01*
X22550Y12550D01*
X22650D01*
X22700Y12600D01*
Y12850D01*
X23000Y12550D02*
X22800D01*
X23000Y12750D01*
Y12800D01*
X22950Y12850D01*
X22850D01*
X22800Y12800D01*
X9500Y2950D02*
X9450Y3000D01*
X9350D01*
X9300Y2950D01*
Y2750D01*
X9350Y2700D01*
X9450D01*
X9500Y2750D01*
X9600Y2950D02*
X9650Y3000D01*
X9750D01*
X9800Y2950D01*
Y2900D01*
X9750Y2850D01*
X9700D01*
X9750D01*
X9800Y2800D01*
Y2750D01*
X9750Y2700D01*
X9650D01*
X9600Y2750D01*
X8600Y2950D02*
X8550Y3000D01*
X8450D01*
X8400Y2950D01*
Y2750D01*
X8450Y2700D01*
X8550D01*
X8600Y2750D01*
X8900Y2700D02*
X8700D01*
X8900Y2900D01*
Y2950D01*
X8850Y3000D01*
X8750D01*
X8700Y2950D01*
X7700Y6200D02*
Y6500D01*
X7850D01*
X7900Y6450D01*
Y6350D01*
X7850Y6300D01*
X7700D01*
X7800D02*
X7900Y6200D01*
X8200Y6500D02*
X8000D01*
Y6350D01*
X8100Y6400D01*
X8150D01*
X8200Y6350D01*
Y6250D01*
X8150Y6200D01*
X8050D01*
X8000Y6250D01*
X6650Y5300D02*
X6600Y5350D01*
X6500D01*
X6450Y5300D01*
Y5100D01*
X6500Y5050D01*
X6600D01*
X6650Y5100D01*
X6950Y5350D02*
X6750D01*
Y5200D01*
X6850Y5250D01*
X6900D01*
X6950Y5200D01*
Y5100D01*
X6900Y5050D01*
X6800D01*
X6750Y5100D01*
X5200Y5050D02*
Y5350D01*
X5350D01*
X5400Y5300D01*
Y5200D01*
X5350Y5150D01*
X5200D01*
X5300D02*
X5400Y5050D01*
X5700Y5350D02*
X5600Y5300D01*
X5500Y5200D01*
Y5100D01*
X5550Y5050D01*
X5650D01*
X5700Y5100D01*
Y5150D01*
X5650Y5200D01*
X5500D01*
X10300Y5500D02*
Y5300D01*
X10400Y5200D01*
X10500Y5300D01*
Y5500D01*
X10600Y5200D02*
Y5500D01*
X10750D01*
X10800Y5450D01*
Y5350D01*
X10750Y5300D01*
X10600D01*
X10700D02*
X10800Y5200D01*
X10900D02*
X11000D01*
X10950D01*
Y5500D01*
X10900Y5450D01*
X650Y14100D02*
Y13850D01*
X700Y13800D01*
X800D01*
X850Y13850D01*
Y14100D01*
X950Y13800D02*
X1050D01*
X1000D01*
Y14100D01*
X950Y14050D01*
X3900Y6200D02*
X3850Y6250D01*
X3750D01*
X3700Y6200D01*
Y6150D01*
X3750Y6100D01*
X3850D01*
X3900Y6050D01*
Y6000D01*
X3850Y5950D01*
X3750D01*
X3700Y6000D01*
X4000Y5950D02*
X4100D01*
X4050D01*
Y6250D01*
X4000Y6200D01*
X1150Y6950D02*
Y7250D01*
X1300D01*
X1350Y7200D01*
Y7100D01*
X1300Y7050D01*
X1150D01*
X1250D02*
X1350Y6950D01*
X1600D02*
Y7250D01*
X1450Y7100D01*
X1650D01*
X15150Y6500D02*
Y6800D01*
X15300D01*
X15350Y6750D01*
Y6650D01*
X15300Y6600D01*
X15150D01*
X15250D02*
X15350Y6500D01*
X15450Y6750D02*
X15500Y6800D01*
X15600D01*
X15650Y6750D01*
Y6700D01*
X15600Y6650D01*
X15550D01*
X15600D01*
X15650Y6600D01*
Y6550D01*
X15600Y6500D01*
X15500D01*
X15450Y6550D01*
X13500Y6501D02*
Y6801D01*
X13650D01*
X13700Y6751D01*
Y6651D01*
X13650Y6601D01*
X13500D01*
X13600D02*
X13700Y6501D01*
X14000D02*
X13800D01*
X14000Y6701D01*
Y6751D01*
X13950Y6801D01*
X13850D01*
X13800Y6751D01*
X11100Y15050D02*
Y15350D01*
X11250D01*
X11300Y15300D01*
Y15200D01*
X11250Y15150D01*
X11100D01*
X11200D02*
X11300Y15050D01*
X11400D02*
X11500D01*
X11450D01*
Y15350D01*
X11400Y15300D01*
X6450Y10800D02*
Y10500D01*
X6650D01*
X6750D02*
X6850D01*
X6800D01*
Y10800D01*
X6750Y10750D01*
X33210Y3590D02*
X33110D01*
X33160D01*
Y3340D01*
X33110Y3290D01*
X33060D01*
X33010Y3340D01*
X33310Y3540D02*
X33360Y3590D01*
X33460D01*
X33510Y3540D01*
Y3490D01*
X33460Y3440D01*
X33510Y3390D01*
Y3340D01*
X33460Y3290D01*
X33360D01*
X33310Y3340D01*
Y3390D01*
X33360Y3440D01*
X33310Y3490D01*
Y3540D01*
X33360Y3440D02*
X33460D01*
X25960Y3590D02*
X25860D01*
X25910D01*
Y3340D01*
X25860Y3290D01*
X25810D01*
X25760Y3340D01*
X26060Y3590D02*
X26260D01*
Y3540D01*
X26060Y3340D01*
Y3290D01*
X27560Y6690D02*
X27460D01*
X27510D01*
Y6440D01*
X27460Y6390D01*
X27410D01*
X27360Y6440D01*
X27860Y6690D02*
X27760Y6640D01*
X27660Y6540D01*
Y6440D01*
X27710Y6390D01*
X27810D01*
X27860Y6440D01*
Y6490D01*
X27810Y6540D01*
X27660D01*
X13400Y3450D02*
X13300D01*
X13350D01*
Y3200D01*
X13300Y3150D01*
X13250D01*
X13200Y3200D01*
X13700Y3450D02*
X13500D01*
Y3300D01*
X13600Y3350D01*
X13650D01*
X13700Y3300D01*
Y3200D01*
X13650Y3150D01*
X13550D01*
X13500Y3200D01*
X19600Y4950D02*
X19500D01*
X19550D01*
Y4700D01*
X19500Y4650D01*
X19450D01*
X19400Y4700D01*
X19850Y4650D02*
Y4950D01*
X19700Y4800D01*
X19900D01*
X16050Y11650D02*
X15950D01*
X16000D01*
Y11400D01*
X15950Y11350D01*
X15900D01*
X15850Y11400D01*
X16150Y11600D02*
X16200Y11650D01*
X16300D01*
X16350Y11600D01*
Y11550D01*
X16300Y11500D01*
X16250D01*
X16300D01*
X16350Y11450D01*
Y11400D01*
X16300Y11350D01*
X16200D01*
X16150Y11400D01*
X11950Y13350D02*
X11850D01*
X11900D01*
Y13100D01*
X11850Y13050D01*
X11800D01*
X11750Y13100D01*
X12250Y13050D02*
X12050D01*
X12250Y13250D01*
Y13300D01*
X12200Y13350D01*
X12100D01*
X12050Y13300D01*
X33650Y6250D02*
X33550D01*
X33600D01*
Y6000D01*
X33550Y5950D01*
X33500D01*
X33450Y6000D01*
X33750Y5950D02*
X33850D01*
X33800D01*
Y6250D01*
X33750Y6200D01*
X3050Y7750D02*
Y7450D01*
X3200D01*
X3250Y7500D01*
Y7700D01*
X3200Y7750D01*
X3050D01*
X3500Y7450D02*
Y7750D01*
X3350Y7600D01*
X3550D01*
X15050Y4950D02*
Y4650D01*
X15200D01*
X15250Y4700D01*
Y4900D01*
X15200Y4950D01*
X15050D01*
X15350Y4900D02*
X15400Y4950D01*
X15500D01*
X15550Y4900D01*
Y4850D01*
X15500Y4800D01*
X15450D01*
X15500D01*
X15550Y4750D01*
Y4700D01*
X15500Y4650D01*
X15400D01*
X15350Y4700D01*
X13400Y4950D02*
Y4650D01*
X13550D01*
X13600Y4700D01*
Y4900D01*
X13550Y4950D01*
X13400D01*
X13900Y4650D02*
X13700D01*
X13900Y4850D01*
Y4900D01*
X13850Y4950D01*
X13750D01*
X13700Y4900D01*
X4210Y10690D02*
Y10390D01*
X4360D01*
X4410Y10440D01*
Y10640D01*
X4360Y10690D01*
X4210D01*
X4510Y10390D02*
X4610D01*
X4560D01*
Y10690D01*
X4510Y10640D01*
X11073Y6751D02*
X11023Y6801D01*
X10923D01*
X10873Y6751D01*
Y6551D01*
X10923Y6501D01*
X11023D01*
X11073Y6551D01*
X11323Y6501D02*
Y6801D01*
X11173Y6651D01*
X11373D01*
X4700Y1050D02*
X4650Y1100D01*
X4550D01*
X4500Y1050D01*
Y850D01*
X4550Y800D01*
X4650D01*
X4700Y850D01*
X4800Y800D02*
X4900D01*
X4850D01*
Y1100D01*
X4800Y1050D01*
D16*
X15975Y11101D02*
X15875D01*
X15825Y11051D01*
Y10851D01*
X15875Y10801D01*
X15975D01*
X16025Y10851D01*
Y11051D01*
X15975Y11101D01*
X16125D02*
Y10801D01*
X16325D01*
X16625Y11101D02*
X16425D01*
Y10801D01*
X16625D01*
X16425Y10951D02*
X16525D01*
X16725Y11101D02*
Y10801D01*
X16875D01*
X16925Y10851D01*
Y11051D01*
X16875Y11101D01*
X16725D01*
X12760Y13310D02*
X12710Y13360D01*
X12610D01*
X12560Y13310D01*
Y13260D01*
X12610Y13210D01*
X12710D01*
X12760Y13160D01*
Y13110D01*
X12710Y13060D01*
X12610D01*
X12560Y13110D01*
X13010Y13060D02*
X12910D01*
X12860Y13110D01*
Y13210D01*
X12910Y13260D01*
X13010D01*
X13060Y13210D01*
Y13160D01*
X12860D01*
X13160Y13260D02*
Y13060D01*
Y13160D01*
X13210Y13210D01*
X13260Y13260D01*
X13310D01*
X13460D02*
X13560Y13060D01*
X13660Y13260D01*
X13810Y13060D02*
X13910D01*
X13960Y13110D01*
Y13210D01*
X13910Y13260D01*
X13810D01*
X13760Y13210D01*
Y13110D01*
X13810Y13060D01*
X14060D02*
Y13360D01*
X14159Y13260D01*
X14259Y13360D01*
Y13060D01*
X14409D02*
X14509D01*
X14559Y13110D01*
Y13210D01*
X14509Y13260D01*
X14409D01*
X14359Y13210D01*
Y13110D01*
X14409Y13060D01*
X14709Y13310D02*
Y13260D01*
X14659D01*
X14759D01*
X14709D01*
Y13110D01*
X14759Y13060D01*
X14959D02*
X15059D01*
X15109Y13110D01*
Y13210D01*
X15059Y13260D01*
X14959D01*
X14909Y13210D01*
Y13110D01*
X14959Y13060D01*
X15209Y13260D02*
Y13060D01*
Y13160D01*
X15259Y13210D01*
X15309Y13260D01*
X15359D01*
X14460Y3460D02*
Y3210D01*
X14510Y3160D01*
X14610D01*
X14660Y3210D01*
Y3460D01*
X14960Y3410D02*
X14910Y3460D01*
X14810D01*
X14760Y3410D01*
Y3360D01*
X14810Y3310D01*
X14910D01*
X14960Y3260D01*
Y3210D01*
X14910Y3160D01*
X14810D01*
X14760Y3210D01*
X15060Y3160D02*
Y3360D01*
X15160Y3460D01*
X15260Y3360D01*
Y3160D01*
Y3310D01*
X15060D01*
X15360Y3160D02*
Y3460D01*
X15510D01*
X15560Y3410D01*
Y3310D01*
X15510Y3260D01*
X15360D01*
X15460D02*
X15560Y3160D01*
X15660Y3460D02*
X15860D01*
X15760D01*
Y3160D01*
X23560Y12803D02*
X23510Y12853D01*
X23410D01*
X23360Y12803D01*
Y12753D01*
X23410Y12703D01*
X23510D01*
X23560Y12653D01*
Y12603D01*
X23510Y12553D01*
X23410D01*
X23360Y12603D01*
X23660Y12853D02*
X23860D01*
X23760D01*
Y12553D01*
X23960D02*
Y12853D01*
X24060Y12753D01*
X24160Y12853D01*
Y12553D01*
X24260Y12803D02*
X24310Y12853D01*
X24410D01*
X24460Y12803D01*
Y12753D01*
X24410Y12703D01*
X24360D01*
X24410D01*
X24460Y12653D01*
Y12603D01*
X24410Y12553D01*
X24310D01*
X24260Y12603D01*
X24760Y12553D02*
X24560D01*
X24760Y12753D01*
Y12803D01*
X24710Y12853D01*
X24610D01*
X24560Y12803D01*
X25059Y12853D02*
X24859D01*
Y12703D01*
X24959D01*
X24859D01*
Y12553D01*
X25159D02*
X25259D01*
X25209D01*
Y12853D01*
X25159Y12803D01*
X25409D02*
X25459Y12853D01*
X25559D01*
X25609Y12803D01*
Y12603D01*
X25559Y12553D01*
X25459D01*
X25409Y12603D01*
Y12803D01*
X25709D02*
X25759Y12853D01*
X25859D01*
X25909Y12803D01*
Y12753D01*
X25859Y12703D01*
X25809D01*
X25859D01*
X25909Y12653D01*
Y12603D01*
X25859Y12553D01*
X25759D01*
X25709Y12603D01*
X26209Y12803D02*
X26159Y12853D01*
X26059D01*
X26009Y12803D01*
Y12603D01*
X26059Y12553D01*
X26159D01*
X26209Y12603D01*
X26309Y12803D02*
X26359Y12853D01*
X26459D01*
X26509Y12803D01*
Y12753D01*
X26459Y12703D01*
X26509Y12653D01*
Y12603D01*
X26459Y12553D01*
X26359D01*
X26309Y12603D01*
Y12653D01*
X26359Y12703D01*
X26309Y12753D01*
Y12803D01*
X26359Y12703D02*
X26459D01*
X26609Y12853D02*
X26809D01*
X26709D01*
Y12553D01*
X27109Y12853D02*
X27009Y12803D01*
X26909Y12703D01*
Y12603D01*
X26959Y12553D01*
X27059D01*
X27109Y12603D01*
Y12653D01*
X27059Y12703D01*
X26909D01*
X28360Y6710D02*
X28160D01*
Y6410D01*
X28360D01*
X28160Y6560D02*
X28260D01*
X28460Y6410D02*
Y6610D01*
X28610D01*
X28660Y6560D01*
Y6410D01*
X28960Y6610D02*
X28810D01*
X28760Y6560D01*
Y6460D01*
X28810Y6410D01*
X28960D01*
X29110D02*
X29210D01*
X29260Y6460D01*
Y6560D01*
X29210Y6610D01*
X29110D01*
X29060Y6560D01*
Y6460D01*
X29110Y6410D01*
X29560Y6710D02*
Y6410D01*
X29410D01*
X29360Y6460D01*
Y6560D01*
X29410Y6610D01*
X29560D01*
X29809Y6410D02*
X29709D01*
X29660Y6460D01*
Y6560D01*
X29709Y6610D01*
X29809D01*
X29859Y6560D01*
Y6510D01*
X29660D01*
X29959Y6610D02*
Y6410D01*
Y6510D01*
X30009Y6560D01*
X30059Y6610D01*
X30109D01*
X34234Y6255D02*
Y5955D01*
X34384D01*
X34434Y6005D01*
Y6055D01*
X34384Y6105D01*
X34234D01*
X34384D01*
X34434Y6155D01*
Y6205D01*
X34384Y6255D01*
X34234D01*
X34534Y5955D02*
X34634D01*
X34584D01*
Y6255D01*
X34534D01*
X34784Y6155D02*
Y6005D01*
X34834Y5955D01*
X34984D01*
Y6155D01*
X35234Y5955D02*
X35134D01*
X35084Y6005D01*
Y6105D01*
X35134Y6155D01*
X35234D01*
X35284Y6105D01*
Y6055D01*
X35084D01*
X35434Y6205D02*
Y6155D01*
X35384D01*
X35484D01*
X35434D01*
Y6005D01*
X35484Y5955D01*
X35684D02*
X35784D01*
X35834Y6005D01*
Y6105D01*
X35784Y6155D01*
X35684D01*
X35634Y6105D01*
Y6005D01*
X35684Y5955D01*
X35983D02*
X36083D01*
X36133Y6005D01*
Y6105D01*
X36083Y6155D01*
X35983D01*
X35933Y6105D01*
Y6005D01*
X35983Y5955D01*
X36283Y6205D02*
Y6155D01*
X36233D01*
X36333D01*
X36283D01*
Y6005D01*
X36333Y5955D01*
X36483Y6255D02*
Y5955D01*
Y6105D01*
X36533Y6155D01*
X36633D01*
X36683Y6105D01*
Y5955D01*
X33810Y3610D02*
Y3310D01*
X33960D01*
X34010Y3360D01*
Y3560D01*
X33960Y3610D01*
X33810D01*
X34110Y3510D02*
Y3310D01*
Y3410D01*
X34160Y3460D01*
X34210Y3510D01*
X34260D01*
X34410Y3310D02*
X34510D01*
X34460D01*
Y3510D01*
X34410D01*
X34660D02*
X34760Y3310D01*
X34860Y3510D01*
X34960Y3310D02*
X35060D01*
X35010D01*
Y3510D01*
X34960D01*
X35210Y3310D02*
Y3510D01*
X35359D01*
X35409Y3460D01*
Y3310D01*
X35609Y3210D02*
X35659D01*
X35709Y3260D01*
Y3510D01*
X35559D01*
X35509Y3460D01*
Y3360D01*
X35559Y3310D01*
X35709D01*
X35809D02*
Y3610D01*
X35909Y3510D01*
X36009Y3610D01*
Y3310D01*
X36159D02*
X36259D01*
X36309Y3360D01*
Y3460D01*
X36259Y3510D01*
X36159D01*
X36109Y3460D01*
Y3360D01*
X36159Y3310D01*
X36459Y3560D02*
Y3510D01*
X36409D01*
X36509D01*
X36459D01*
Y3360D01*
X36509Y3310D01*
X36709D02*
X36809D01*
X36859Y3360D01*
Y3460D01*
X36809Y3510D01*
X36709D01*
X36659Y3460D01*
Y3360D01*
X36709Y3310D01*
X36959Y3510D02*
Y3310D01*
Y3410D01*
X37009Y3460D01*
X37059Y3510D01*
X37109D01*
X26560Y3310D02*
Y3610D01*
X26660Y3510D01*
X26760Y3610D01*
Y3310D01*
X26910D02*
X27010D01*
X27060Y3360D01*
Y3460D01*
X27010Y3510D01*
X26910D01*
X26860Y3460D01*
Y3360D01*
X26910Y3310D01*
X27160D02*
Y3510D01*
X27210D01*
X27260Y3460D01*
Y3310D01*
Y3460D01*
X27310Y3510D01*
X27360Y3460D01*
Y3310D01*
X27610D02*
X27510D01*
X27460Y3360D01*
Y3460D01*
X27510Y3510D01*
X27610D01*
X27660Y3460D01*
Y3410D01*
X27460D01*
X27760Y3310D02*
Y3510D01*
X27910D01*
X27960Y3460D01*
Y3310D01*
X28110Y3560D02*
Y3510D01*
X28060D01*
X28159D01*
X28110D01*
Y3360D01*
X28159Y3310D01*
X28309Y3510D02*
Y3360D01*
X28359Y3310D01*
X28509D01*
Y3510D01*
X28609Y3310D02*
Y3510D01*
X28659D01*
X28709Y3460D01*
Y3310D01*
Y3460D01*
X28759Y3510D01*
X28809Y3460D01*
Y3310D01*
X28909Y3610D02*
Y3310D01*
X29009Y3410D01*
X29109Y3310D01*
Y3610D01*
X29209D02*
Y3310D01*
Y3460D01*
X29259Y3510D01*
X29359D01*
X29409Y3460D01*
Y3310D01*
X29659D02*
X29559D01*
X29509Y3360D01*
Y3460D01*
X29559Y3510D01*
X29659D01*
X29709Y3460D01*
Y3410D01*
X29509D01*
X29959Y3310D02*
X29859D01*
X29809Y3360D01*
Y3460D01*
X29859Y3510D01*
X29959D01*
X30009Y3460D01*
Y3410D01*
X29809D01*
X30109Y3310D02*
X30209D01*
X30159D01*
Y3610D01*
X30109D01*
X30359Y3310D02*
Y3610D01*
X30459Y3510D01*
X30559Y3610D01*
Y3310D01*
X30709D02*
X30809D01*
X30859Y3360D01*
Y3460D01*
X30809Y3510D01*
X30709D01*
X30659Y3460D01*
Y3360D01*
X30709Y3310D01*
X31009Y3560D02*
Y3510D01*
X30959D01*
X31059D01*
X31009D01*
Y3360D01*
X31059Y3310D01*
X31258D02*
X31358D01*
X31408Y3360D01*
Y3460D01*
X31358Y3510D01*
X31258D01*
X31209Y3460D01*
Y3360D01*
X31258Y3310D01*
X31508Y3510D02*
Y3310D01*
Y3410D01*
X31558Y3460D01*
X31608Y3510D01*
X31658D01*
X20260Y4660D02*
Y4960D01*
X20360Y4860D01*
X20460Y4960D01*
Y4660D01*
X20560D02*
Y4960D01*
X20710D01*
X20760Y4910D01*
Y4810D01*
X20710Y4760D01*
X20560D01*
X20860Y4960D02*
Y4710D01*
X20910Y4660D01*
X21010D01*
X21060Y4710D01*
Y4960D01*
X21360D02*
X21260Y4910D01*
X21160Y4810D01*
Y4710D01*
X21210Y4660D01*
X21310D01*
X21360Y4710D01*
Y4760D01*
X21310Y4810D01*
X21160D01*
X21460Y4910D02*
X21510Y4960D01*
X21610D01*
X21660Y4910D01*
Y4710D01*
X21610Y4660D01*
X21510D01*
X21460Y4710D01*
Y4910D01*
X21959Y4960D02*
X21760D01*
Y4810D01*
X21859Y4860D01*
X21909D01*
X21959Y4810D01*
Y4710D01*
X21909Y4660D01*
X21809D01*
X21760Y4710D01*
X22059Y4910D02*
X22109Y4960D01*
X22209D01*
X22259Y4910D01*
Y4710D01*
X22209Y4660D01*
X22109D01*
X22059Y4710D01*
Y4910D01*
D17*
X38600Y12175D02*
D03*
X2500Y8875D02*
D03*
X14400Y3575D02*
D03*
X16051D02*
D03*
D18*
X4915Y8165D02*
D03*
D19*
X5092Y8512D02*
D03*
D20*
X4915Y8840D02*
D03*
D21*
X4925Y8278D02*
D03*
D22*
X4910Y8720D02*
D03*
D23*
X4728Y8512D02*
D03*
M02*
