M48
;Layer_Color=9474304
;FILE_FORMAT=2:4
INCH,TZ
;TYPE=PLATED
T1F00S00C0.0120
T2F00S00C0.0350
T3F00S00C0.0354
T4F00S00C0.0390
T5F00S00C0.0472
T6F00S00C0.0630
;TYPE=NON_PLATED
T7F00S00C0.1181
%
T01
X3900Y2400
Y2956
Y3512
X3901Y4067
X20350Y4150
Y3583
Y3017
Y2450
X21250
Y3017
Y3583
Y4150
X22150
Y3583
Y3017
Y2450
X26350Y4100
X37400Y9250
X36350Y9350
X36350Y10750
Y11150
Y11550
Y11950
X35700Y11950
Y11550
Y11150
Y10750
X35050Y10750
Y11150
Y11550
Y11950
X29800Y11950
Y11550
Y11150
Y10750
X29150
Y11150
Y11550
Y11950
X28500Y11950
Y11550
Y11150
Y10750
X24000Y10800
Y11200
Y11600
Y12000
X23350Y12000
Y11600
Y11200
Y10800
X22700Y10800
Y11200
Y11600
Y12000
X19100Y7400
X8900Y5750
X9750Y10600
Y11050
X10300
Y10600
X3017Y14599
X2467
X1912
X1894Y15151
X2450Y15150
X3000
X550Y8800
X549Y8244
Y7688
Y7133
T02
X11300Y2000
Y3000
Y4000
T03
X13450Y2700
X14450
X15450
X16450
X26250
X27250
X28250
X29250
X30250
X31250
X32600
X33600
X34600
X35600
X36600
Y5200
X35600
X34600
X33600
X32600
X29700Y4650
X28700
X27700
X37600Y5200
Y2700
X29700Y5650
X28700
X27700
X24800Y6200
X23800
X22800
X21800
X20800
X19800
X18800
X17800
X15200Y9200
Y10200
Y11200
Y12200
X14550Y13850
X13550
X12550
T04
X21850Y8500
X22850
X23850
X24850
X25850
X26850
X27850
X28850
X29850
X30850
X31850
X32850
X33850
X34850
X35850
X36850
Y14500
X35850
X34850
X33850
X32850
X31850
X30850
X29850
X28850
X27850
X26850
X25850
X24850
X23850
X22850
X21850
X20850
X19850
X18850
X17850
Y8500
X18850
X19850
X20850
T05
X2700Y2888
Y4069
Y5250
X1850Y10300
Y12300
T06
X2700Y1589
Y6549
T07
X18391Y1609
X24391
M30
