G04*
G04 #@! TF.GenerationSoftware,Altium Limited,Altium Designer,21.0.8 (223)*
G04*
G04 Layer_Color=16711935*
%FSLAX24Y24*%
%MOIN*%
G70*
G04*
G04 #@! TF.SameCoordinates,5611F575-40E7-4C37-80B7-B37D46D1236C*
G04*
G04*
G04 #@! TF.FilePolarity,Positive*
G04*
G01*
G75*
%ADD70C,0.0039*%
D70*
X38206Y13039D02*
X38324Y12921D01*
X38246Y13118D02*
X38364Y13000D01*
X38600Y12843D02*
Y13157D01*
X38443Y12921D02*
X38757D01*
X38600D02*
X38757Y13079D01*
X38443D02*
X38600Y12921D01*
X38443Y13079D02*
X38757D01*
X2343Y7971D02*
X2657D01*
X2500Y8129D02*
X2657Y7971D01*
X2343D02*
X2500Y8129D01*
X2343D02*
X2657D01*
X2500Y7893D02*
Y8207D01*
X2736Y8050D02*
X2854Y7932D01*
X2776Y8129D02*
X2894Y8011D01*
X14006Y4439D02*
X14124Y4321D01*
X14046Y4518D02*
X14164Y4400D01*
X14400Y4243D02*
Y4557D01*
X14243Y4321D02*
X14557D01*
X14400D02*
X14557Y4479D01*
X14243D02*
X14400Y4321D01*
X14243Y4479D02*
X14557D01*
X15656Y4439D02*
X15774Y4321D01*
X15696Y4518D02*
X15814Y4400D01*
X16050Y4243D02*
Y4557D01*
X15893Y4321D02*
X16207D01*
X16050D02*
X16207Y4479D01*
X15893D02*
X16050Y4321D01*
X15893Y4479D02*
X16207D01*
M02*
