G04*
G04 #@! TF.GenerationSoftware,Altium Limited,Altium Designer,21.0.8 (223)*
G04*
G04 Layer_Color=128*
%FSLAX24Y24*%
%MOIN*%
G70*
G04*
G04 #@! TF.SameCoordinates,5611F575-40E7-4C37-80B7-B37D46D1236C*
G04*
G04*
G04 #@! TF.FilePolarity,Positive*
G04*
G01*
G75*
%ADD71C,0.0020*%
D71*
X17655Y8500D02*
X18045D01*
X17850Y8305D02*
Y8695D01*
X18655Y8500D02*
X19045D01*
X18850Y8305D02*
Y8695D01*
X19655Y8500D02*
X20045D01*
X19850Y8305D02*
Y8695D01*
X20655Y8500D02*
X21045D01*
X20850Y8305D02*
Y8695D01*
X21655Y8500D02*
X22045D01*
X21850Y8305D02*
Y8695D01*
X22655Y8500D02*
X23045D01*
X22850Y8305D02*
Y8695D01*
X23655Y8500D02*
X24045D01*
X23850Y8305D02*
Y8695D01*
X24655Y8500D02*
X25045D01*
X24850Y8305D02*
Y8695D01*
X25655Y8500D02*
X26045D01*
X25850Y8305D02*
Y8695D01*
X26655Y8500D02*
X27045D01*
X26850Y8305D02*
Y8695D01*
X27655Y8500D02*
X28045D01*
X27850Y8305D02*
Y8695D01*
X28655Y8500D02*
X29045D01*
X28850Y8305D02*
Y8695D01*
X29655Y8500D02*
X30045D01*
X29850Y8305D02*
Y8695D01*
X30655Y8500D02*
X31045D01*
X30850Y8305D02*
Y8695D01*
X31655Y8500D02*
X32045D01*
X31850Y8305D02*
Y8695D01*
X32655Y8500D02*
X33045D01*
X32850Y8305D02*
Y8695D01*
X33655Y8500D02*
X34045D01*
X33850Y8305D02*
Y8695D01*
X34655Y8500D02*
X35045D01*
X34850Y8305D02*
Y8695D01*
X35655Y8500D02*
X36045D01*
X35850Y8305D02*
Y8695D01*
X36655Y8500D02*
X37045D01*
X36850Y8305D02*
Y8695D01*
X36655Y14500D02*
X37045D01*
X36850Y14305D02*
Y14695D01*
X35655Y14500D02*
X36045D01*
X35850Y14305D02*
Y14695D01*
X34655Y14500D02*
X35045D01*
X34850Y14305D02*
Y14695D01*
X33655Y14500D02*
X34045D01*
X33850Y14305D02*
Y14695D01*
X32655Y14500D02*
X33045D01*
X32850Y14305D02*
Y14695D01*
X31655Y14500D02*
X32045D01*
X31850Y14305D02*
Y14695D01*
X30655Y14500D02*
X31045D01*
X30850Y14305D02*
Y14695D01*
X29655Y14500D02*
X30045D01*
X29850Y14305D02*
Y14695D01*
X28655Y14500D02*
X29045D01*
X28850Y14305D02*
Y14695D01*
X27655Y14500D02*
X28045D01*
X27850Y14305D02*
Y14695D01*
X26655Y14500D02*
X27045D01*
X26850Y14305D02*
Y14695D01*
X25655Y14500D02*
X26045D01*
X25850Y14305D02*
Y14695D01*
X24655Y14500D02*
X25045D01*
X24850Y14305D02*
Y14695D01*
X23655Y14500D02*
X24045D01*
X23850Y14305D02*
Y14695D01*
X22655Y14500D02*
X23045D01*
X22850Y14305D02*
Y14695D01*
X21655Y14500D02*
X22045D01*
X21850Y14305D02*
Y14695D01*
X20655Y14500D02*
X21045D01*
X20850Y14305D02*
Y14695D01*
X19655Y14500D02*
X20045D01*
X19850Y14305D02*
Y14695D01*
X18655Y14500D02*
X19045D01*
X18850Y14305D02*
Y14695D01*
X17655Y14500D02*
X18045D01*
X17850Y14305D02*
Y14695D01*
X2385Y1589D02*
X3015D01*
X2700Y1274D02*
Y1904D01*
X2464Y2888D02*
X2936D01*
X2700Y2652D02*
Y3124D01*
X2464Y4069D02*
X2936D01*
X2700Y3833D02*
Y4305D01*
X2464Y5250D02*
X2936D01*
X2700Y5014D02*
Y5486D01*
X2385Y6549D02*
X3015D01*
X2700Y6234D02*
Y6864D01*
X15023Y9200D02*
X15377D01*
X15200Y9023D02*
Y9377D01*
X15023Y10200D02*
X15377D01*
X15200Y10023D02*
Y10377D01*
X15023Y11200D02*
X15377D01*
X15200Y11023D02*
Y11377D01*
X15023Y12200D02*
X15377D01*
X15200Y12023D02*
Y12377D01*
X16273Y2700D02*
X16627D01*
X16450Y2523D02*
Y2877D01*
X15273Y2700D02*
X15627D01*
X15450Y2523D02*
Y2877D01*
X14273Y2700D02*
X14627D01*
X14450Y2523D02*
Y2877D01*
X13273Y2700D02*
X13627D01*
X13450Y2523D02*
Y2877D01*
X29523Y5650D02*
X29877D01*
X29700Y5473D02*
Y5827D01*
X29523Y4650D02*
X29877D01*
X29700Y4473D02*
Y4827D01*
X28523Y5650D02*
X28877D01*
X28700Y5473D02*
Y5827D01*
X28523Y4650D02*
X28877D01*
X28700Y4473D02*
Y4827D01*
X27523Y5650D02*
X27877D01*
X27700Y5473D02*
Y5827D01*
X27523Y4650D02*
X27877D01*
X27700Y4473D02*
Y4827D01*
X37423Y5200D02*
X37777D01*
X37600Y5023D02*
Y5377D01*
X36423Y5200D02*
X36777D01*
X36600Y5023D02*
Y5377D01*
X35423Y5200D02*
X35777D01*
X35600Y5023D02*
Y5377D01*
X34423Y5200D02*
X34777D01*
X34600Y5023D02*
Y5377D01*
X33423Y5200D02*
X33777D01*
X33600Y5023D02*
Y5377D01*
X32423Y5200D02*
X32777D01*
X32600Y5023D02*
Y5377D01*
X32423Y2700D02*
X32777D01*
X32600Y2523D02*
Y2877D01*
X33423Y2700D02*
X33777D01*
X33600Y2523D02*
Y2877D01*
X34423Y2700D02*
X34777D01*
X34600Y2523D02*
Y2877D01*
X35423Y2700D02*
X35777D01*
X35600Y2523D02*
Y2877D01*
X36423Y2700D02*
X36777D01*
X36600Y2523D02*
Y2877D01*
X37423Y2700D02*
X37777D01*
X37600Y2523D02*
Y2877D01*
X31073Y2700D02*
X31427D01*
X31250Y2523D02*
Y2877D01*
X30073Y2700D02*
X30427D01*
X30250Y2523D02*
Y2877D01*
X29073Y2700D02*
X29427D01*
X29250Y2523D02*
Y2877D01*
X28073Y2700D02*
X28427D01*
X28250Y2523D02*
Y2877D01*
X27073Y2700D02*
X27427D01*
X27250Y2523D02*
Y2877D01*
X26073Y2700D02*
X26427D01*
X26250Y2523D02*
Y2877D01*
X17623Y6200D02*
X17977D01*
X17800Y6023D02*
Y6377D01*
X18623Y6200D02*
X18977D01*
X18800Y6023D02*
Y6377D01*
X24623Y6200D02*
X24977D01*
X24800Y6023D02*
Y6377D01*
X23623Y6200D02*
X23977D01*
X23800Y6023D02*
Y6377D01*
X22623Y6200D02*
X22977D01*
X22800Y6023D02*
Y6377D01*
X21623Y6200D02*
X21977D01*
X21800Y6023D02*
Y6377D01*
X20623Y6200D02*
X20977D01*
X20800Y6023D02*
Y6377D01*
X19623Y6200D02*
X19977D01*
X19800Y6023D02*
Y6377D01*
X12373Y13850D02*
X12727D01*
X12550Y13673D02*
Y14027D01*
X13373Y13850D02*
X13727D01*
X13550Y13673D02*
Y14027D01*
X14373Y13850D02*
X14727D01*
X14550Y13673D02*
Y14027D01*
X17800Y1609D02*
X18981D01*
X18391Y1019D02*
Y2200D01*
X23800Y1609D02*
X24981D01*
X24391Y1019D02*
Y2200D01*
X11125Y2000D02*
X11475D01*
X11300Y1825D02*
Y2175D01*
X11125Y4000D02*
X11475D01*
X11300Y3825D02*
Y4175D01*
X11125Y3000D02*
X11475D01*
X11300Y2825D02*
Y3175D01*
X1614Y12300D02*
X2086D01*
X1850Y12064D02*
Y12536D01*
X1614Y10300D02*
X2086D01*
X1850Y10064D02*
Y10536D01*
X8840Y5750D02*
X8960D01*
X8900Y5690D02*
Y5810D01*
X22090Y2450D02*
X22210D01*
X22150Y2390D02*
Y2510D01*
X20290Y2450D02*
X20410D01*
X20350Y2390D02*
Y2510D01*
X21190Y2450D02*
X21310D01*
X21250Y2390D02*
Y2510D01*
X22090Y3583D02*
X22210D01*
X22150Y3523D02*
Y3643D01*
X22090Y4150D02*
X22210D01*
X22150Y4090D02*
Y4210D01*
X22090Y3017D02*
X22210D01*
X22150Y2957D02*
Y3077D01*
X20290Y3583D02*
X20410D01*
X20350Y3523D02*
Y3643D01*
X20290Y4150D02*
X20410D01*
X20350Y4090D02*
Y4210D01*
X20290Y3017D02*
X20410D01*
X20350Y2957D02*
Y3077D01*
X2957Y14599D02*
X3077D01*
X3017Y14539D02*
Y14659D01*
X2940Y15150D02*
X3060D01*
X3000Y15090D02*
Y15210D01*
X9690Y10600D02*
X9810D01*
X9750Y10540D02*
Y10660D01*
X9690Y11050D02*
X9810D01*
X9750Y10990D02*
Y11110D01*
X1834Y15151D02*
X1954D01*
X1894Y15091D02*
Y15211D01*
X2390Y15150D02*
X2510D01*
X2450Y15090D02*
Y15210D01*
X1852Y14599D02*
X1972D01*
X1912Y14539D02*
Y14659D01*
X2407Y14599D02*
X2527D01*
X2467Y14539D02*
Y14659D01*
X490Y8800D02*
X610D01*
X550Y8740D02*
Y8860D01*
X489Y8244D02*
X609D01*
X549Y8184D02*
Y8304D01*
X489Y7688D02*
X609D01*
X549Y7628D02*
Y7748D01*
X489Y7133D02*
X609D01*
X549Y7073D02*
Y7193D01*
X3840Y2400D02*
X3960D01*
X3900Y2340D02*
Y2460D01*
X3840Y2956D02*
X3960D01*
X3900Y2896D02*
Y3016D01*
X3840Y3512D02*
X3960D01*
X3900Y3452D02*
Y3572D01*
X3841Y4067D02*
X3961D01*
X3901Y4007D02*
Y4127D01*
X21190Y3583D02*
X21310D01*
X21250Y3523D02*
Y3643D01*
X21190Y4150D02*
X21310D01*
X21250Y4090D02*
Y4210D01*
X21190Y3017D02*
X21310D01*
X21250Y2957D02*
Y3077D01*
X36290Y11550D02*
X36410D01*
X36350Y11490D02*
Y11610D01*
X35640Y11550D02*
X35760D01*
X35700Y11490D02*
Y11610D01*
X34990Y11550D02*
X35110D01*
X35050Y11490D02*
Y11610D01*
X36290Y11950D02*
X36410D01*
X36350Y11890D02*
Y12010D01*
X34990Y11950D02*
X35110D01*
X35050Y11890D02*
Y12010D01*
X35640Y11950D02*
X35760D01*
X35700Y11890D02*
Y12010D01*
X35640Y11150D02*
X35760D01*
X35700Y11090D02*
Y11210D01*
X34990Y11150D02*
X35110D01*
X35050Y11090D02*
Y11210D01*
X36290Y11150D02*
X36410D01*
X36350Y11090D02*
Y11210D01*
X34990Y10750D02*
X35110D01*
X35050Y10690D02*
Y10810D01*
X35640Y10750D02*
X35760D01*
X35700Y10690D02*
Y10810D01*
X36290Y10750D02*
X36410D01*
X36350Y10690D02*
Y10810D01*
X29740Y11550D02*
X29860D01*
X29800Y11490D02*
Y11610D01*
X29090Y11550D02*
X29210D01*
X29150Y11490D02*
Y11610D01*
X28440Y11550D02*
X28560D01*
X28500Y11490D02*
Y11610D01*
X29740Y11950D02*
X29860D01*
X29800Y11890D02*
Y12010D01*
X28440Y11950D02*
X28560D01*
X28500Y11890D02*
Y12010D01*
X29090Y11950D02*
X29210D01*
X29150Y11890D02*
Y12010D01*
X29090Y11150D02*
X29210D01*
X29150Y11090D02*
Y11210D01*
X28440Y11150D02*
X28560D01*
X28500Y11090D02*
Y11210D01*
X29740Y11150D02*
X29860D01*
X29800Y11090D02*
Y11210D01*
X28440Y10750D02*
X28560D01*
X28500Y10690D02*
Y10810D01*
X29090Y10750D02*
X29210D01*
X29150Y10690D02*
Y10810D01*
X29740Y10750D02*
X29860D01*
X29800Y10690D02*
Y10810D01*
X23940Y10800D02*
X24060D01*
X24000Y10740D02*
Y10860D01*
X23290Y10800D02*
X23410D01*
X23350Y10740D02*
Y10860D01*
X22640Y10800D02*
X22760D01*
X22700Y10740D02*
Y10860D01*
X23940Y11200D02*
X24060D01*
X24000Y11140D02*
Y11260D01*
X22640Y11200D02*
X22760D01*
X22700Y11140D02*
Y11260D01*
X23290Y11200D02*
X23410D01*
X23350Y11140D02*
Y11260D01*
X23290Y12000D02*
X23410D01*
X23350Y11940D02*
Y12060D01*
X22640Y12000D02*
X22760D01*
X22700Y11940D02*
Y12060D01*
X23940Y12000D02*
X24060D01*
X24000Y11940D02*
Y12060D01*
X22640Y11600D02*
X22760D01*
X22700Y11540D02*
Y11660D01*
X23290Y11600D02*
X23410D01*
X23350Y11540D02*
Y11660D01*
X23940Y11600D02*
X24060D01*
X24000Y11540D02*
Y11660D01*
X36290Y9350D02*
X36410D01*
X36350Y9290D02*
Y9410D01*
X37340Y9250D02*
X37460D01*
X37400Y9190D02*
Y9310D01*
X26290Y4100D02*
X26410D01*
X26350Y4040D02*
Y4160D01*
X10240Y10600D02*
X10360D01*
X10300Y10540D02*
Y10660D01*
X10240Y11050D02*
X10360D01*
X10300Y10990D02*
Y11110D01*
X19040Y7400D02*
X19160D01*
X19100Y7340D02*
Y7460D01*
M02*
