G04*
G04 #@! TF.GenerationSoftware,Altium Limited,Altium Designer,21.0.8 (223)*
G04*
G04 Layer_Color=2752767*
%FSLAX24Y24*%
%MOIN*%
G70*
G04*
G04 #@! TF.SameCoordinates,5611F575-40E7-4C37-80B7-B37D46D1236C*
G04*
G04*
G04 #@! TF.FilePolarity,Positive*
G04*
G01*
G75*
%ADD71C,0.0020*%
%ADD72C,0.0027*%
D71*
X17770Y8420D02*
Y8580D01*
X17930D01*
Y8420D01*
X17770D01*
X18770D02*
Y8580D01*
X18930D01*
Y8420D01*
X18770D01*
X19770D02*
Y8580D01*
X19930D01*
Y8420D01*
X19770D01*
X20770D02*
Y8580D01*
X20930D01*
Y8420D01*
X20770D01*
X21770D02*
Y8580D01*
X21930D01*
Y8420D01*
X21770D01*
X22770D02*
Y8580D01*
X22930D01*
Y8420D01*
X22770D01*
X23770D02*
Y8580D01*
X23930D01*
Y8420D01*
X23770D01*
X24770D02*
Y8580D01*
X24930D01*
Y8420D01*
X24770D01*
X25770D02*
Y8580D01*
X25930D01*
Y8420D01*
X25770D01*
X26770D02*
Y8580D01*
X26930D01*
Y8420D01*
X26770D01*
X27770D02*
Y8580D01*
X27930D01*
Y8420D01*
X27770D01*
X28770D02*
Y8580D01*
X28930D01*
Y8420D01*
X28770D01*
X29770D02*
Y8580D01*
X29930D01*
Y8420D01*
X29770D01*
X30770D02*
Y8580D01*
X30930D01*
Y8420D01*
X30770D01*
X31770D02*
Y8580D01*
X31930D01*
Y8420D01*
X31770D01*
X32770D02*
Y8580D01*
X32930D01*
Y8420D01*
X32770D01*
X33770D02*
Y8580D01*
X33930D01*
Y8420D01*
X33770D01*
X34770D02*
Y8580D01*
X34930D01*
Y8420D01*
X34770D01*
X35770D02*
Y8580D01*
X35930D01*
Y8420D01*
X35770D01*
X36770D02*
Y8580D01*
X36930D01*
Y8420D01*
X36770D01*
Y14420D02*
Y14580D01*
X36930D01*
Y14420D01*
X36770D01*
X35770D02*
Y14580D01*
X35930D01*
Y14420D01*
X35770D01*
X34770D02*
Y14580D01*
X34930D01*
Y14420D01*
X34770D01*
X33770D02*
Y14580D01*
X33930D01*
Y14420D01*
X33770D01*
X32770D02*
Y14580D01*
X32930D01*
Y14420D01*
X32770D01*
X31770D02*
Y14580D01*
X31930D01*
Y14420D01*
X31770D01*
X30770D02*
Y14580D01*
X30930D01*
Y14420D01*
X30770D01*
X29770D02*
Y14580D01*
X29930D01*
Y14420D01*
X29770D01*
X28770D02*
Y14580D01*
X28930D01*
Y14420D01*
X28770D01*
X27770D02*
Y14580D01*
X27930D01*
Y14420D01*
X27770D01*
X26770D02*
Y14580D01*
X26930D01*
Y14420D01*
X26770D01*
X25770D02*
Y14580D01*
X25930D01*
Y14420D01*
X25770D01*
X24770D02*
Y14580D01*
X24930D01*
Y14420D01*
X24770D01*
X23770D02*
Y14580D01*
X23930D01*
Y14420D01*
X23770D01*
X22770D02*
Y14580D01*
X22930D01*
Y14420D01*
X22770D01*
X21770D02*
Y14580D01*
X21930D01*
Y14420D01*
X21770D01*
X20770D02*
Y14580D01*
X20930D01*
Y14420D01*
X20770D01*
X19770D02*
Y14580D01*
X19930D01*
Y14420D01*
X19770D01*
X18770D02*
Y14580D01*
X18930D01*
Y14420D01*
X18770D01*
X17770D02*
Y14580D01*
X17930D01*
Y14420D01*
X17770D01*
X2700Y2808D02*
X2620Y2968D01*
X2780D01*
X2700Y2808D01*
Y3989D02*
X2620Y4149D01*
X2780D01*
X2700Y3989D01*
Y5170D02*
X2620Y5330D01*
X2780D01*
X2700Y5170D01*
X15200Y9120D02*
X15240Y9160D01*
X15280D01*
X15240Y9200D01*
X15280Y9240D01*
X15240D01*
X15200Y9280D01*
X15160Y9240D01*
X15120D01*
X15160Y9200D01*
X15120Y9160D01*
X15160D01*
X15200Y9120D01*
Y10120D02*
X15240Y10160D01*
X15280D01*
X15240Y10200D01*
X15280Y10240D01*
X15240D01*
X15200Y10280D01*
X15160Y10240D01*
X15120D01*
X15160Y10200D01*
X15120Y10160D01*
X15160D01*
X15200Y10120D01*
Y11120D02*
X15240Y11160D01*
X15280D01*
X15240Y11200D01*
X15280Y11240D01*
X15240D01*
X15200Y11280D01*
X15160Y11240D01*
X15120D01*
X15160Y11200D01*
X15120Y11160D01*
X15160D01*
X15200Y11120D01*
Y12120D02*
X15240Y12160D01*
X15280D01*
X15240Y12200D01*
X15280Y12240D01*
X15240D01*
X15200Y12280D01*
X15160Y12240D01*
X15120D01*
X15160Y12200D01*
X15120Y12160D01*
X15160D01*
X15200Y12120D01*
X16450Y2620D02*
X16490Y2660D01*
X16530D01*
X16490Y2700D01*
X16530Y2740D01*
X16490D01*
X16450Y2780D01*
X16410Y2740D01*
X16370D01*
X16410Y2700D01*
X16370Y2660D01*
X16410D01*
X16450Y2620D01*
X15450D02*
X15490Y2660D01*
X15530D01*
X15490Y2700D01*
X15530Y2740D01*
X15490D01*
X15450Y2780D01*
X15410Y2740D01*
X15370D01*
X15410Y2700D01*
X15370Y2660D01*
X15410D01*
X15450Y2620D01*
X14450D02*
X14490Y2660D01*
X14530D01*
X14490Y2700D01*
X14530Y2740D01*
X14490D01*
X14450Y2780D01*
X14410Y2740D01*
X14370D01*
X14410Y2700D01*
X14370Y2660D01*
X14410D01*
X14450Y2620D01*
X13450D02*
X13490Y2660D01*
X13530D01*
X13490Y2700D01*
X13530Y2740D01*
X13490D01*
X13450Y2780D01*
X13410Y2740D01*
X13370D01*
X13410Y2700D01*
X13370Y2660D01*
X13410D01*
X13450Y2620D01*
X29700Y5570D02*
X29740Y5610D01*
X29780D01*
X29740Y5650D01*
X29780Y5690D01*
X29740D01*
X29700Y5730D01*
X29660Y5690D01*
X29620D01*
X29660Y5650D01*
X29620Y5610D01*
X29660D01*
X29700Y5570D01*
Y4570D02*
X29740Y4610D01*
X29780D01*
X29740Y4650D01*
X29780Y4690D01*
X29740D01*
X29700Y4730D01*
X29660Y4690D01*
X29620D01*
X29660Y4650D01*
X29620Y4610D01*
X29660D01*
X29700Y4570D01*
X28700Y5570D02*
X28740Y5610D01*
X28780D01*
X28740Y5650D01*
X28780Y5690D01*
X28740D01*
X28700Y5730D01*
X28660Y5690D01*
X28620D01*
X28660Y5650D01*
X28620Y5610D01*
X28660D01*
X28700Y5570D01*
Y4570D02*
X28740Y4610D01*
X28780D01*
X28740Y4650D01*
X28780Y4690D01*
X28740D01*
X28700Y4730D01*
X28660Y4690D01*
X28620D01*
X28660Y4650D01*
X28620Y4610D01*
X28660D01*
X28700Y4570D01*
X27700Y5570D02*
X27740Y5610D01*
X27780D01*
X27740Y5650D01*
X27780Y5690D01*
X27740D01*
X27700Y5730D01*
X27660Y5690D01*
X27620D01*
X27660Y5650D01*
X27620Y5610D01*
X27660D01*
X27700Y5570D01*
Y4570D02*
X27740Y4610D01*
X27780D01*
X27740Y4650D01*
X27780Y4690D01*
X27740D01*
X27700Y4730D01*
X27660Y4690D01*
X27620D01*
X27660Y4650D01*
X27620Y4610D01*
X27660D01*
X27700Y4570D01*
X37600Y5120D02*
X37640Y5160D01*
X37680D01*
X37640Y5200D01*
X37680Y5240D01*
X37640D01*
X37600Y5280D01*
X37560Y5240D01*
X37520D01*
X37560Y5200D01*
X37520Y5160D01*
X37560D01*
X37600Y5120D01*
X36600D02*
X36640Y5160D01*
X36680D01*
X36640Y5200D01*
X36680Y5240D01*
X36640D01*
X36600Y5280D01*
X36560Y5240D01*
X36520D01*
X36560Y5200D01*
X36520Y5160D01*
X36560D01*
X36600Y5120D01*
X35600D02*
X35640Y5160D01*
X35680D01*
X35640Y5200D01*
X35680Y5240D01*
X35640D01*
X35600Y5280D01*
X35560Y5240D01*
X35520D01*
X35560Y5200D01*
X35520Y5160D01*
X35560D01*
X35600Y5120D01*
X34600D02*
X34640Y5160D01*
X34680D01*
X34640Y5200D01*
X34680Y5240D01*
X34640D01*
X34600Y5280D01*
X34560Y5240D01*
X34520D01*
X34560Y5200D01*
X34520Y5160D01*
X34560D01*
X34600Y5120D01*
X33600D02*
X33640Y5160D01*
X33680D01*
X33640Y5200D01*
X33680Y5240D01*
X33640D01*
X33600Y5280D01*
X33560Y5240D01*
X33520D01*
X33560Y5200D01*
X33520Y5160D01*
X33560D01*
X33600Y5120D01*
X32600D02*
X32640Y5160D01*
X32680D01*
X32640Y5200D01*
X32680Y5240D01*
X32640D01*
X32600Y5280D01*
X32560Y5240D01*
X32520D01*
X32560Y5200D01*
X32520Y5160D01*
X32560D01*
X32600Y5120D01*
Y2620D02*
X32640Y2660D01*
X32680D01*
X32640Y2700D01*
X32680Y2740D01*
X32640D01*
X32600Y2780D01*
X32560Y2740D01*
X32520D01*
X32560Y2700D01*
X32520Y2660D01*
X32560D01*
X32600Y2620D01*
X33600D02*
X33640Y2660D01*
X33680D01*
X33640Y2700D01*
X33680Y2740D01*
X33640D01*
X33600Y2780D01*
X33560Y2740D01*
X33520D01*
X33560Y2700D01*
X33520Y2660D01*
X33560D01*
X33600Y2620D01*
X34600D02*
X34640Y2660D01*
X34680D01*
X34640Y2700D01*
X34680Y2740D01*
X34640D01*
X34600Y2780D01*
X34560Y2740D01*
X34520D01*
X34560Y2700D01*
X34520Y2660D01*
X34560D01*
X34600Y2620D01*
X35600D02*
X35640Y2660D01*
X35680D01*
X35640Y2700D01*
X35680Y2740D01*
X35640D01*
X35600Y2780D01*
X35560Y2740D01*
X35520D01*
X35560Y2700D01*
X35520Y2660D01*
X35560D01*
X35600Y2620D01*
X36600D02*
X36640Y2660D01*
X36680D01*
X36640Y2700D01*
X36680Y2740D01*
X36640D01*
X36600Y2780D01*
X36560Y2740D01*
X36520D01*
X36560Y2700D01*
X36520Y2660D01*
X36560D01*
X36600Y2620D01*
X37600D02*
X37640Y2660D01*
X37680D01*
X37640Y2700D01*
X37680Y2740D01*
X37640D01*
X37600Y2780D01*
X37560Y2740D01*
X37520D01*
X37560Y2700D01*
X37520Y2660D01*
X37560D01*
X37600Y2620D01*
X31250D02*
X31290Y2660D01*
X31330D01*
X31290Y2700D01*
X31330Y2740D01*
X31290D01*
X31250Y2780D01*
X31210Y2740D01*
X31170D01*
X31210Y2700D01*
X31170Y2660D01*
X31210D01*
X31250Y2620D01*
X30250D02*
X30290Y2660D01*
X30330D01*
X30290Y2700D01*
X30330Y2740D01*
X30290D01*
X30250Y2780D01*
X30210Y2740D01*
X30170D01*
X30210Y2700D01*
X30170Y2660D01*
X30210D01*
X30250Y2620D01*
X29250D02*
X29290Y2660D01*
X29330D01*
X29290Y2700D01*
X29330Y2740D01*
X29290D01*
X29250Y2780D01*
X29210Y2740D01*
X29170D01*
X29210Y2700D01*
X29170Y2660D01*
X29210D01*
X29250Y2620D01*
X28250D02*
X28290Y2660D01*
X28330D01*
X28290Y2700D01*
X28330Y2740D01*
X28290D01*
X28250Y2780D01*
X28210Y2740D01*
X28170D01*
X28210Y2700D01*
X28170Y2660D01*
X28210D01*
X28250Y2620D01*
X27250D02*
X27290Y2660D01*
X27330D01*
X27290Y2700D01*
X27330Y2740D01*
X27290D01*
X27250Y2780D01*
X27210Y2740D01*
X27170D01*
X27210Y2700D01*
X27170Y2660D01*
X27210D01*
X27250Y2620D01*
X26250D02*
X26290Y2660D01*
X26330D01*
X26290Y2700D01*
X26330Y2740D01*
X26290D01*
X26250Y2780D01*
X26210Y2740D01*
X26170D01*
X26210Y2700D01*
X26170Y2660D01*
X26210D01*
X26250Y2620D01*
X17800Y6120D02*
X17840Y6160D01*
X17880D01*
X17840Y6200D01*
X17880Y6240D01*
X17840D01*
X17800Y6280D01*
X17760Y6240D01*
X17720D01*
X17760Y6200D01*
X17720Y6160D01*
X17760D01*
X17800Y6120D01*
X18800D02*
X18840Y6160D01*
X18880D01*
X18840Y6200D01*
X18880Y6240D01*
X18840D01*
X18800Y6280D01*
X18760Y6240D01*
X18720D01*
X18760Y6200D01*
X18720Y6160D01*
X18760D01*
X18800Y6120D01*
X24800D02*
X24840Y6160D01*
X24880D01*
X24840Y6200D01*
X24880Y6240D01*
X24840D01*
X24800Y6280D01*
X24760Y6240D01*
X24720D01*
X24760Y6200D01*
X24720Y6160D01*
X24760D01*
X24800Y6120D01*
X23800D02*
X23840Y6160D01*
X23880D01*
X23840Y6200D01*
X23880Y6240D01*
X23840D01*
X23800Y6280D01*
X23760Y6240D01*
X23720D01*
X23760Y6200D01*
X23720Y6160D01*
X23760D01*
X23800Y6120D01*
X22800D02*
X22840Y6160D01*
X22880D01*
X22840Y6200D01*
X22880Y6240D01*
X22840D01*
X22800Y6280D01*
X22760Y6240D01*
X22720D01*
X22760Y6200D01*
X22720Y6160D01*
X22760D01*
X22800Y6120D01*
X21800D02*
X21840Y6160D01*
X21880D01*
X21840Y6200D01*
X21880Y6240D01*
X21840D01*
X21800Y6280D01*
X21760Y6240D01*
X21720D01*
X21760Y6200D01*
X21720Y6160D01*
X21760D01*
X21800Y6120D01*
X20800D02*
X20840Y6160D01*
X20880D01*
X20840Y6200D01*
X20880Y6240D01*
X20840D01*
X20800Y6280D01*
X20760Y6240D01*
X20720D01*
X20760Y6200D01*
X20720Y6160D01*
X20760D01*
X20800Y6120D01*
X19800D02*
X19840Y6160D01*
X19880D01*
X19840Y6200D01*
X19880Y6240D01*
X19840D01*
X19800Y6280D01*
X19760Y6240D01*
X19720D01*
X19760Y6200D01*
X19720Y6160D01*
X19760D01*
X19800Y6120D01*
X12550Y13770D02*
X12590Y13810D01*
X12630D01*
X12590Y13850D01*
X12630Y13890D01*
X12590D01*
X12550Y13930D01*
X12510Y13890D01*
X12470D01*
X12510Y13850D01*
X12470Y13810D01*
X12510D01*
X12550Y13770D01*
X13550D02*
X13590Y13810D01*
X13630D01*
X13590Y13850D01*
X13630Y13890D01*
X13590D01*
X13550Y13930D01*
X13510Y13890D01*
X13470D01*
X13510Y13850D01*
X13470Y13810D01*
X13510D01*
X13550Y13770D01*
X14550D02*
X14590Y13810D01*
X14630D01*
X14590Y13850D01*
X14630Y13890D01*
X14590D01*
X14550Y13930D01*
X14510Y13890D01*
X14470D01*
X14510Y13850D01*
X14470Y13810D01*
X14510D01*
X14550Y13770D01*
X18311Y1529D02*
X18351Y1609D01*
X18311Y1689D01*
X18391Y1649D01*
X18471Y1689D01*
X18431Y1609D01*
X18471Y1529D01*
X18391Y1569D01*
X18311Y1529D01*
X24311D02*
X24351Y1609D01*
X24311Y1689D01*
X24391Y1649D01*
X24471Y1689D01*
X24431Y1609D01*
X24471Y1529D01*
X24391Y1569D01*
X24311Y1529D01*
X11260Y1960D02*
Y1920D01*
X11340D01*
Y1960D01*
X11380D01*
Y2040D01*
X11340D01*
Y2080D01*
X11260D01*
Y2040D01*
X11220D01*
Y1960D01*
X11260D01*
Y3960D02*
Y3920D01*
X11340D01*
Y3960D01*
X11380D01*
Y4040D01*
X11340D01*
Y4080D01*
X11260D01*
Y4040D01*
X11220D01*
Y3960D01*
X11260D01*
Y2960D02*
Y2920D01*
X11340D01*
Y2960D01*
X11380D01*
Y3040D01*
X11340D01*
Y3080D01*
X11260D01*
Y3040D01*
X11220D01*
Y2960D01*
X11260D01*
X1850Y12220D02*
X1770Y12380D01*
X1930D01*
X1850Y12220D01*
Y10220D02*
X1770Y10380D01*
X1930D01*
X1850Y10220D01*
X8820Y5670D02*
X8860D01*
X8900Y5710D01*
X8940Y5670D01*
X8980D01*
Y5710D01*
X8940Y5750D01*
X8980Y5790D01*
Y5830D01*
X8940D01*
X8900Y5790D01*
X8860Y5830D01*
X8820D01*
Y5790D01*
X8860Y5750D01*
X8820Y5710D01*
Y5670D01*
X22070Y2370D02*
X22110D01*
X22150Y2410D01*
X22190Y2370D01*
X22230D01*
Y2410D01*
X22190Y2450D01*
X22230Y2490D01*
Y2530D01*
X22190D01*
X22150Y2490D01*
X22110Y2530D01*
X22070D01*
Y2490D01*
X22110Y2450D01*
X22070Y2410D01*
Y2370D01*
X20270D02*
X20310D01*
X20350Y2410D01*
X20390Y2370D01*
X20430D01*
Y2410D01*
X20390Y2450D01*
X20430Y2490D01*
Y2530D01*
X20390D01*
X20350Y2490D01*
X20310Y2530D01*
X20270D01*
Y2490D01*
X20310Y2450D01*
X20270Y2410D01*
Y2370D01*
X21170D02*
X21210D01*
X21250Y2410D01*
X21290Y2370D01*
X21330D01*
Y2410D01*
X21290Y2450D01*
X21330Y2490D01*
Y2530D01*
X21290D01*
X21250Y2490D01*
X21210Y2530D01*
X21170D01*
Y2490D01*
X21210Y2450D01*
X21170Y2410D01*
Y2370D01*
X22070Y3503D02*
X22110D01*
X22150Y3543D01*
X22190Y3503D01*
X22230D01*
Y3543D01*
X22190Y3583D01*
X22230Y3623D01*
Y3663D01*
X22190D01*
X22150Y3623D01*
X22110Y3663D01*
X22070D01*
Y3623D01*
X22110Y3583D01*
X22070Y3543D01*
Y3503D01*
Y4070D02*
X22110D01*
X22150Y4110D01*
X22190Y4070D01*
X22230D01*
Y4110D01*
X22190Y4150D01*
X22230Y4190D01*
Y4230D01*
X22190D01*
X22150Y4190D01*
X22110Y4230D01*
X22070D01*
Y4190D01*
X22110Y4150D01*
X22070Y4110D01*
Y4070D01*
Y2937D02*
X22110D01*
X22150Y2977D01*
X22190Y2937D01*
X22230D01*
Y2977D01*
X22190Y3017D01*
X22230Y3057D01*
Y3097D01*
X22190D01*
X22150Y3057D01*
X22110Y3097D01*
X22070D01*
Y3057D01*
X22110Y3017D01*
X22070Y2977D01*
Y2937D01*
X20270Y3503D02*
X20310D01*
X20350Y3543D01*
X20390Y3503D01*
X20430D01*
Y3543D01*
X20390Y3583D01*
X20430Y3623D01*
Y3663D01*
X20390D01*
X20350Y3623D01*
X20310Y3663D01*
X20270D01*
Y3623D01*
X20310Y3583D01*
X20270Y3543D01*
Y3503D01*
Y4070D02*
X20310D01*
X20350Y4110D01*
X20390Y4070D01*
X20430D01*
Y4110D01*
X20390Y4150D01*
X20430Y4190D01*
Y4230D01*
X20390D01*
X20350Y4190D01*
X20310Y4230D01*
X20270D01*
Y4190D01*
X20310Y4150D01*
X20270Y4110D01*
Y4070D01*
Y2937D02*
X20310D01*
X20350Y2977D01*
X20390Y2937D01*
X20430D01*
Y2977D01*
X20390Y3017D01*
X20430Y3057D01*
Y3097D01*
X20390D01*
X20350Y3057D01*
X20310Y3097D01*
X20270D01*
Y3057D01*
X20310Y3017D01*
X20270Y2977D01*
Y2937D01*
X2937Y14519D02*
X2977D01*
X3017Y14559D01*
X3057Y14519D01*
X3097D01*
Y14559D01*
X3057Y14599D01*
X3097Y14639D01*
Y14679D01*
X3057D01*
X3017Y14639D01*
X2977Y14679D01*
X2937D01*
Y14639D01*
X2977Y14599D01*
X2937Y14559D01*
Y14519D01*
X2920Y15070D02*
X2960D01*
X3000Y15110D01*
X3040Y15070D01*
X3080D01*
Y15110D01*
X3040Y15150D01*
X3080Y15190D01*
Y15230D01*
X3040D01*
X3000Y15190D01*
X2960Y15230D01*
X2920D01*
Y15190D01*
X2960Y15150D01*
X2920Y15110D01*
Y15070D01*
X9670Y10520D02*
X9710D01*
X9750Y10560D01*
X9790Y10520D01*
X9830D01*
Y10560D01*
X9790Y10600D01*
X9830Y10640D01*
Y10680D01*
X9790D01*
X9750Y10640D01*
X9710Y10680D01*
X9670D01*
Y10640D01*
X9710Y10600D01*
X9670Y10560D01*
Y10520D01*
Y10970D02*
X9710D01*
X9750Y11010D01*
X9790Y10970D01*
X9830D01*
Y11010D01*
X9790Y11050D01*
X9830Y11090D01*
Y11130D01*
X9790D01*
X9750Y11090D01*
X9710Y11130D01*
X9670D01*
Y11090D01*
X9710Y11050D01*
X9670Y11010D01*
Y10970D01*
X1814Y15071D02*
X1854D01*
X1894Y15111D01*
X1934Y15071D01*
X1974D01*
Y15111D01*
X1934Y15151D01*
X1974Y15191D01*
Y15231D01*
X1934D01*
X1894Y15191D01*
X1854Y15231D01*
X1814D01*
Y15191D01*
X1854Y15151D01*
X1814Y15111D01*
Y15071D01*
X2370Y15070D02*
X2410D01*
X2450Y15110D01*
X2490Y15070D01*
X2530D01*
Y15110D01*
X2490Y15150D01*
X2530Y15190D01*
Y15230D01*
X2490D01*
X2450Y15190D01*
X2410Y15230D01*
X2370D01*
Y15190D01*
X2410Y15150D01*
X2370Y15110D01*
Y15070D01*
X1832Y14519D02*
X1872D01*
X1912Y14559D01*
X1952Y14519D01*
X1992D01*
Y14559D01*
X1952Y14599D01*
X1992Y14639D01*
Y14679D01*
X1952D01*
X1912Y14639D01*
X1872Y14679D01*
X1832D01*
Y14639D01*
X1872Y14599D01*
X1832Y14559D01*
Y14519D01*
X2387D02*
X2427D01*
X2467Y14559D01*
X2507Y14519D01*
X2547D01*
Y14559D01*
X2507Y14599D01*
X2547Y14639D01*
Y14679D01*
X2507D01*
X2467Y14639D01*
X2427Y14679D01*
X2387D01*
Y14639D01*
X2427Y14599D01*
X2387Y14559D01*
Y14519D01*
X470Y8720D02*
X510D01*
X550Y8760D01*
X590Y8720D01*
X630D01*
Y8760D01*
X590Y8800D01*
X630Y8840D01*
Y8880D01*
X590D01*
X550Y8840D01*
X510Y8880D01*
X470D01*
Y8840D01*
X510Y8800D01*
X470Y8760D01*
Y8720D01*
X469Y8164D02*
X509D01*
X549Y8204D01*
X589Y8164D01*
X629D01*
Y8204D01*
X589Y8244D01*
X629Y8284D01*
Y8324D01*
X589D01*
X549Y8284D01*
X509Y8324D01*
X469D01*
Y8284D01*
X509Y8244D01*
X469Y8204D01*
Y8164D01*
Y7608D02*
X509D01*
X549Y7648D01*
X589Y7608D01*
X629D01*
Y7648D01*
X589Y7688D01*
X629Y7728D01*
Y7768D01*
X589D01*
X549Y7728D01*
X509Y7768D01*
X469D01*
Y7728D01*
X509Y7688D01*
X469Y7648D01*
Y7608D01*
Y7053D02*
X509D01*
X549Y7093D01*
X589Y7053D01*
X629D01*
Y7093D01*
X589Y7133D01*
X629Y7173D01*
Y7213D01*
X589D01*
X549Y7173D01*
X509Y7213D01*
X469D01*
Y7173D01*
X509Y7133D01*
X469Y7093D01*
Y7053D01*
X3820Y2320D02*
X3860D01*
X3900Y2360D01*
X3940Y2320D01*
X3980D01*
Y2360D01*
X3940Y2400D01*
X3980Y2440D01*
Y2480D01*
X3940D01*
X3900Y2440D01*
X3860Y2480D01*
X3820D01*
Y2440D01*
X3860Y2400D01*
X3820Y2360D01*
Y2320D01*
Y2876D02*
X3860D01*
X3900Y2916D01*
X3940Y2876D01*
X3980D01*
Y2916D01*
X3940Y2956D01*
X3980Y2996D01*
Y3036D01*
X3940D01*
X3900Y2996D01*
X3860Y3036D01*
X3820D01*
Y2996D01*
X3860Y2956D01*
X3820Y2916D01*
Y2876D01*
Y3432D02*
X3860D01*
X3900Y3472D01*
X3940Y3432D01*
X3980D01*
Y3472D01*
X3940Y3512D01*
X3980Y3552D01*
Y3592D01*
X3940D01*
X3900Y3552D01*
X3860Y3592D01*
X3820D01*
Y3552D01*
X3860Y3512D01*
X3820Y3472D01*
Y3432D01*
X3821Y3987D02*
X3861D01*
X3901Y4027D01*
X3941Y3987D01*
X3981D01*
Y4027D01*
X3941Y4067D01*
X3981Y4107D01*
Y4147D01*
X3941D01*
X3901Y4107D01*
X3861Y4147D01*
X3821D01*
Y4107D01*
X3861Y4067D01*
X3821Y4027D01*
Y3987D01*
X21170Y3503D02*
X21210D01*
X21250Y3543D01*
X21290Y3503D01*
X21330D01*
Y3543D01*
X21290Y3583D01*
X21330Y3623D01*
Y3663D01*
X21290D01*
X21250Y3623D01*
X21210Y3663D01*
X21170D01*
Y3623D01*
X21210Y3583D01*
X21170Y3543D01*
Y3503D01*
Y4070D02*
X21210D01*
X21250Y4110D01*
X21290Y4070D01*
X21330D01*
Y4110D01*
X21290Y4150D01*
X21330Y4190D01*
Y4230D01*
X21290D01*
X21250Y4190D01*
X21210Y4230D01*
X21170D01*
Y4190D01*
X21210Y4150D01*
X21170Y4110D01*
Y4070D01*
Y2937D02*
X21210D01*
X21250Y2977D01*
X21290Y2937D01*
X21330D01*
Y2977D01*
X21290Y3017D01*
X21330Y3057D01*
Y3097D01*
X21290D01*
X21250Y3057D01*
X21210Y3097D01*
X21170D01*
Y3057D01*
X21210Y3017D01*
X21170Y2977D01*
Y2937D01*
X36270Y11470D02*
X36310D01*
X36350Y11510D01*
X36390Y11470D01*
X36430D01*
Y11510D01*
X36390Y11550D01*
X36430Y11590D01*
Y11630D01*
X36390D01*
X36350Y11590D01*
X36310Y11630D01*
X36270D01*
Y11590D01*
X36310Y11550D01*
X36270Y11510D01*
Y11470D01*
X35620D02*
X35660D01*
X35700Y11510D01*
X35740Y11470D01*
X35780D01*
Y11510D01*
X35740Y11550D01*
X35780Y11590D01*
Y11630D01*
X35740D01*
X35700Y11590D01*
X35660Y11630D01*
X35620D01*
Y11590D01*
X35660Y11550D01*
X35620Y11510D01*
Y11470D01*
X34970Y11470D02*
X35010D01*
X35050Y11510D01*
X35090Y11470D01*
X35130D01*
Y11510D01*
X35090Y11550D01*
X35130Y11590D01*
Y11630D01*
X35090D01*
X35050Y11590D01*
X35010Y11630D01*
X34970D01*
Y11590D01*
X35010Y11550D01*
X34970Y11510D01*
Y11470D01*
X36270Y11870D02*
X36310D01*
X36350Y11910D01*
X36390Y11870D01*
X36430D01*
Y11910D01*
X36390Y11950D01*
X36430Y11990D01*
Y12030D01*
X36390D01*
X36350Y11990D01*
X36310Y12030D01*
X36270D01*
Y11990D01*
X36310Y11950D01*
X36270Y11910D01*
Y11870D01*
X34970Y11870D02*
X35010D01*
X35050Y11910D01*
X35090Y11870D01*
X35130D01*
Y11910D01*
X35090Y11950D01*
X35130Y11990D01*
Y12030D01*
X35090D01*
X35050Y11990D01*
X35010Y12030D01*
X34970D01*
Y11990D01*
X35010Y11950D01*
X34970Y11910D01*
Y11870D01*
X35620Y11870D02*
X35660D01*
X35700Y11910D01*
X35740Y11870D01*
X35780D01*
Y11910D01*
X35740Y11950D01*
X35780Y11990D01*
Y12030D01*
X35740D01*
X35700Y11990D01*
X35660Y12030D01*
X35620D01*
Y11990D01*
X35660Y11950D01*
X35620Y11910D01*
Y11870D01*
Y11070D02*
X35660D01*
X35700Y11110D01*
X35740Y11070D01*
X35780D01*
Y11110D01*
X35740Y11150D01*
X35780Y11190D01*
Y11230D01*
X35740D01*
X35700Y11190D01*
X35660Y11230D01*
X35620D01*
Y11190D01*
X35660Y11150D01*
X35620Y11110D01*
Y11070D01*
X34970Y11070D02*
X35010D01*
X35050Y11110D01*
X35090Y11070D01*
X35130D01*
Y11110D01*
X35090Y11150D01*
X35130Y11190D01*
Y11230D01*
X35090D01*
X35050Y11190D01*
X35010Y11230D01*
X34970D01*
Y11190D01*
X35010Y11150D01*
X34970Y11110D01*
Y11070D01*
X36270Y11070D02*
X36310D01*
X36350Y11110D01*
X36390Y11070D01*
X36430D01*
Y11110D01*
X36390Y11150D01*
X36430Y11190D01*
Y11230D01*
X36390D01*
X36350Y11190D01*
X36310Y11230D01*
X36270D01*
Y11190D01*
X36310Y11150D01*
X36270Y11110D01*
Y11070D01*
X34970Y10670D02*
X35010D01*
X35050Y10710D01*
X35090Y10670D01*
X35130D01*
Y10710D01*
X35090Y10750D01*
X35130Y10790D01*
Y10830D01*
X35090D01*
X35050Y10790D01*
X35010Y10830D01*
X34970D01*
Y10790D01*
X35010Y10750D01*
X34970Y10710D01*
Y10670D01*
X35620Y10670D02*
X35660D01*
X35700Y10710D01*
X35740Y10670D01*
X35780D01*
Y10710D01*
X35740Y10750D01*
X35780Y10790D01*
Y10830D01*
X35740D01*
X35700Y10790D01*
X35660Y10830D01*
X35620D01*
Y10790D01*
X35660Y10750D01*
X35620Y10710D01*
Y10670D01*
X36270D02*
X36310D01*
X36350Y10710D01*
X36390Y10670D01*
X36430D01*
Y10710D01*
X36390Y10750D01*
X36430Y10790D01*
Y10830D01*
X36390D01*
X36350Y10790D01*
X36310Y10830D01*
X36270D01*
Y10790D01*
X36310Y10750D01*
X36270Y10710D01*
Y10670D01*
X29720Y11470D02*
X29760D01*
X29800Y11510D01*
X29840Y11470D01*
X29880D01*
Y11510D01*
X29840Y11550D01*
X29880Y11590D01*
Y11630D01*
X29840D01*
X29800Y11590D01*
X29760Y11630D01*
X29720D01*
Y11590D01*
X29760Y11550D01*
X29720Y11510D01*
Y11470D01*
X29070D02*
X29110D01*
X29150Y11510D01*
X29190Y11470D01*
X29230D01*
Y11510D01*
X29190Y11550D01*
X29230Y11590D01*
Y11630D01*
X29190D01*
X29150Y11590D01*
X29110Y11630D01*
X29070D01*
Y11590D01*
X29110Y11550D01*
X29070Y11510D01*
Y11470D01*
X28420Y11470D02*
X28460D01*
X28500Y11510D01*
X28540Y11470D01*
X28580D01*
Y11510D01*
X28540Y11550D01*
X28580Y11590D01*
Y11630D01*
X28540D01*
X28500Y11590D01*
X28460Y11630D01*
X28420D01*
Y11590D01*
X28460Y11550D01*
X28420Y11510D01*
Y11470D01*
X29720Y11870D02*
X29760D01*
X29800Y11910D01*
X29840Y11870D01*
X29880D01*
Y11910D01*
X29840Y11950D01*
X29880Y11990D01*
Y12030D01*
X29840D01*
X29800Y11990D01*
X29760Y12030D01*
X29720D01*
Y11990D01*
X29760Y11950D01*
X29720Y11910D01*
Y11870D01*
X28420Y11870D02*
X28460D01*
X28500Y11910D01*
X28540Y11870D01*
X28580D01*
Y11910D01*
X28540Y11950D01*
X28580Y11990D01*
Y12030D01*
X28540D01*
X28500Y11990D01*
X28460Y12030D01*
X28420D01*
Y11990D01*
X28460Y11950D01*
X28420Y11910D01*
Y11870D01*
X29070Y11870D02*
X29110D01*
X29150Y11910D01*
X29190Y11870D01*
X29230D01*
Y11910D01*
X29190Y11950D01*
X29230Y11990D01*
Y12030D01*
X29190D01*
X29150Y11990D01*
X29110Y12030D01*
X29070D01*
Y11990D01*
X29110Y11950D01*
X29070Y11910D01*
Y11870D01*
Y11070D02*
X29110D01*
X29150Y11110D01*
X29190Y11070D01*
X29230D01*
Y11110D01*
X29190Y11150D01*
X29230Y11190D01*
Y11230D01*
X29190D01*
X29150Y11190D01*
X29110Y11230D01*
X29070D01*
Y11190D01*
X29110Y11150D01*
X29070Y11110D01*
Y11070D01*
X28420Y11070D02*
X28460D01*
X28500Y11110D01*
X28540Y11070D01*
X28580D01*
Y11110D01*
X28540Y11150D01*
X28580Y11190D01*
Y11230D01*
X28540D01*
X28500Y11190D01*
X28460Y11230D01*
X28420D01*
Y11190D01*
X28460Y11150D01*
X28420Y11110D01*
Y11070D01*
X29720Y11070D02*
X29760D01*
X29800Y11110D01*
X29840Y11070D01*
X29880D01*
Y11110D01*
X29840Y11150D01*
X29880Y11190D01*
Y11230D01*
X29840D01*
X29800Y11190D01*
X29760Y11230D01*
X29720D01*
Y11190D01*
X29760Y11150D01*
X29720Y11110D01*
Y11070D01*
X28420Y10670D02*
X28460D01*
X28500Y10710D01*
X28540Y10670D01*
X28580D01*
Y10710D01*
X28540Y10750D01*
X28580Y10790D01*
Y10830D01*
X28540D01*
X28500Y10790D01*
X28460Y10830D01*
X28420D01*
Y10790D01*
X28460Y10750D01*
X28420Y10710D01*
Y10670D01*
X29070Y10670D02*
X29110D01*
X29150Y10710D01*
X29190Y10670D01*
X29230D01*
Y10710D01*
X29190Y10750D01*
X29230Y10790D01*
Y10830D01*
X29190D01*
X29150Y10790D01*
X29110Y10830D01*
X29070D01*
Y10790D01*
X29110Y10750D01*
X29070Y10710D01*
Y10670D01*
X29720D02*
X29760D01*
X29800Y10710D01*
X29840Y10670D01*
X29880D01*
Y10710D01*
X29840Y10750D01*
X29880Y10790D01*
Y10830D01*
X29840D01*
X29800Y10790D01*
X29760Y10830D01*
X29720D01*
Y10790D01*
X29760Y10750D01*
X29720Y10710D01*
Y10670D01*
X23920Y10720D02*
X23960D01*
X24000Y10760D01*
X24040Y10720D01*
X24080D01*
Y10760D01*
X24040Y10800D01*
X24080Y10840D01*
Y10880D01*
X24040D01*
X24000Y10840D01*
X23960Y10880D01*
X23920D01*
Y10840D01*
X23960Y10800D01*
X23920Y10760D01*
Y10720D01*
X23270D02*
X23310D01*
X23350Y10760D01*
X23390Y10720D01*
X23430D01*
Y10760D01*
X23390Y10800D01*
X23430Y10840D01*
Y10880D01*
X23390D01*
X23350Y10840D01*
X23310Y10880D01*
X23270D01*
Y10840D01*
X23310Y10800D01*
X23270Y10760D01*
Y10720D01*
X22620Y10720D02*
X22660D01*
X22700Y10760D01*
X22740Y10720D01*
X22780D01*
Y10760D01*
X22740Y10800D01*
X22780Y10840D01*
Y10880D01*
X22740D01*
X22700Y10840D01*
X22660Y10880D01*
X22620D01*
Y10840D01*
X22660Y10800D01*
X22620Y10760D01*
Y10720D01*
X23920Y11120D02*
X23960D01*
X24000Y11160D01*
X24040Y11120D01*
X24080D01*
Y11160D01*
X24040Y11200D01*
X24080Y11240D01*
Y11280D01*
X24040D01*
X24000Y11240D01*
X23960Y11280D01*
X23920D01*
Y11240D01*
X23960Y11200D01*
X23920Y11160D01*
Y11120D01*
X22620Y11120D02*
X22660D01*
X22700Y11160D01*
X22740Y11120D01*
X22780D01*
Y11160D01*
X22740Y11200D01*
X22780Y11240D01*
Y11280D01*
X22740D01*
X22700Y11240D01*
X22660Y11280D01*
X22620D01*
Y11240D01*
X22660Y11200D01*
X22620Y11160D01*
Y11120D01*
X23270Y11120D02*
X23310D01*
X23350Y11160D01*
X23390Y11120D01*
X23430D01*
Y11160D01*
X23390Y11200D01*
X23430Y11240D01*
Y11280D01*
X23390D01*
X23350Y11240D01*
X23310Y11280D01*
X23270D01*
Y11240D01*
X23310Y11200D01*
X23270Y11160D01*
Y11120D01*
Y11920D02*
X23310D01*
X23350Y11960D01*
X23390Y11920D01*
X23430D01*
Y11960D01*
X23390Y12000D01*
X23430Y12040D01*
Y12080D01*
X23390D01*
X23350Y12040D01*
X23310Y12080D01*
X23270D01*
Y12040D01*
X23310Y12000D01*
X23270Y11960D01*
Y11920D01*
X22620Y11920D02*
X22660D01*
X22700Y11960D01*
X22740Y11920D01*
X22780D01*
Y11960D01*
X22740Y12000D01*
X22780Y12040D01*
Y12080D01*
X22740D01*
X22700Y12040D01*
X22660Y12080D01*
X22620D01*
Y12040D01*
X22660Y12000D01*
X22620Y11960D01*
Y11920D01*
X23920Y11920D02*
X23960D01*
X24000Y11960D01*
X24040Y11920D01*
X24080D01*
Y11960D01*
X24040Y12000D01*
X24080Y12040D01*
Y12080D01*
X24040D01*
X24000Y12040D01*
X23960Y12080D01*
X23920D01*
Y12040D01*
X23960Y12000D01*
X23920Y11960D01*
Y11920D01*
X22620Y11520D02*
X22660D01*
X22700Y11560D01*
X22740Y11520D01*
X22780D01*
Y11560D01*
X22740Y11600D01*
X22780Y11640D01*
Y11680D01*
X22740D01*
X22700Y11640D01*
X22660Y11680D01*
X22620D01*
Y11640D01*
X22660Y11600D01*
X22620Y11560D01*
Y11520D01*
X23270Y11520D02*
X23310D01*
X23350Y11560D01*
X23390Y11520D01*
X23430D01*
Y11560D01*
X23390Y11600D01*
X23430Y11640D01*
Y11680D01*
X23390D01*
X23350Y11640D01*
X23310Y11680D01*
X23270D01*
Y11640D01*
X23310Y11600D01*
X23270Y11560D01*
Y11520D01*
X23920D02*
X23960D01*
X24000Y11560D01*
X24040Y11520D01*
X24080D01*
Y11560D01*
X24040Y11600D01*
X24080Y11640D01*
Y11680D01*
X24040D01*
X24000Y11640D01*
X23960Y11680D01*
X23920D01*
Y11640D01*
X23960Y11600D01*
X23920Y11560D01*
Y11520D01*
X36270Y9270D02*
X36310D01*
X36350Y9310D01*
X36390Y9270D01*
X36430D01*
Y9310D01*
X36390Y9350D01*
X36430Y9390D01*
Y9430D01*
X36390D01*
X36350Y9390D01*
X36310Y9430D01*
X36270D01*
Y9390D01*
X36310Y9350D01*
X36270Y9310D01*
Y9270D01*
X37320Y9170D02*
X37360D01*
X37400Y9210D01*
X37440Y9170D01*
X37480D01*
Y9210D01*
X37440Y9250D01*
X37480Y9290D01*
Y9330D01*
X37440D01*
X37400Y9290D01*
X37360Y9330D01*
X37320D01*
Y9290D01*
X37360Y9250D01*
X37320Y9210D01*
Y9170D01*
X26270Y4020D02*
X26310D01*
X26350Y4060D01*
X26390Y4020D01*
X26430D01*
Y4060D01*
X26390Y4100D01*
X26430Y4140D01*
Y4180D01*
X26390D01*
X26350Y4140D01*
X26310Y4180D01*
X26270D01*
Y4140D01*
X26310Y4100D01*
X26270Y4060D01*
Y4020D01*
X10220Y10520D02*
X10260D01*
X10300Y10560D01*
X10340Y10520D01*
X10380D01*
Y10560D01*
X10340Y10600D01*
X10380Y10640D01*
Y10680D01*
X10340D01*
X10300Y10640D01*
X10260Y10680D01*
X10220D01*
Y10640D01*
X10260Y10600D01*
X10220Y10560D01*
Y10520D01*
Y10970D02*
X10260D01*
X10300Y11010D01*
X10340Y10970D01*
X10380D01*
Y11010D01*
X10340Y11050D01*
X10380Y11090D01*
Y11130D01*
X10340D01*
X10300Y11090D01*
X10260Y11130D01*
X10220D01*
Y11090D01*
X10260Y11050D01*
X10220Y11010D01*
Y10970D01*
X19020Y7320D02*
X19060D01*
X19100Y7360D01*
X19140Y7320D01*
X19180D01*
Y7360D01*
X19140Y7400D01*
X19180Y7440D01*
Y7480D01*
X19140D01*
X19100Y7440D01*
X19060Y7480D01*
X19020D01*
Y7440D01*
X19060Y7400D01*
X19020Y7360D01*
Y7320D01*
D72*
X2780Y1589D02*
G03*
X2780Y1589I-80J0D01*
G01*
Y6549D02*
G03*
X2780Y6549I-80J0D01*
G01*
M02*
